<?xml version="1.0" standalone="no"?>
<!DOCTYPE svg PUBLIC "-//W3C//DTD SVG 20010904//EN"
 "http://www.w3.org/TR/2001/REC-SVG-20010904/DTD/svg10.dtd">
<svg version="1.0" xmlns="http://www.w3.org/2000/svg"
 width="526.000000pt" height="526.000000pt" viewBox="0 0 526.000000 526.000000"
 preserveAspectRatio="xMidYMid meet">

<g transform="translate(0.000000,526.000000) scale(0.100000,-0.100000)"
fill="#000000" stroke="none">
<path d="M2010 5197 c-3 -3 -40 -7 -83 -10 -52 -3 -83 -10 -96 -21 -9 -9 -22
-16 -28 -16 -6 0 -27 -16 -47 -35 -21 -19 -41 -35 -45 -35 -14 0 -86 -106
-107 -158 -11 -29 -24 -55 -28 -59 -11 -11 -6 -53 7 -53 6 0 2 -8 -9 -18 -44
-35 -36 -182 10 -182 23 0 43 -34 50 -82 4 -26 11 -50 17 -53 5 -4 9 -14 9
-25 0 -11 11 -22 30 -29 20 -6 30 -17 30 -29 0 -11 18 -44 40 -73 22 -30 40
-59 40 -66 0 -7 8 -18 18 -24 18 -11 18 -13 -1 -50 -14 -29 -25 -39 -43 -39
-30 0 -74 -41 -74 -70 0 -11 -11 -37 -24 -58 -45 -68 -69 -148 -62 -205 14
-105 107 -276 188 -346 21 -18 49 -54 62 -80 13 -25 39 -59 56 -76 50 -46 72
-107 64 -175 -6 -54 -5 -58 26 -88 36 -36 34 -44 -18 -72 -47 -25 -88 -62
-148 -137 -29 -36 -61 -64 -85 -73 -20 -8 -45 -22 -56 -31 -58 -49 -143 -85
-264 -113 -15 -3 -49 -21 -77 -40 -57 -40 -181 -106 -197 -106 -14 0 -79 -68
-95 -98 -6 -13 -9 -30 -6 -39 3 -8 2 -22 -4 -32 -31 -59 91 -339 197 -453 35
-37 63 -71 63 -76 0 -6 21 -41 46 -78 50 -75 294 -320 328 -330 12 -4 51 -34
87 -68 83 -77 137 -120 213 -171 97 -65 95 -59 112 -312 5 -69 4 -103 -3 -103
-6 0 -18 -17 -26 -37 -9 -21 -30 -71 -46 -112 -35 -82 -38 -113 -16 -131 21
-17 19 -62 -4 -102 -15 -24 -20 -50 -19 -97 1 -67 12 -89 53 -106 26 -10 175
-26 240 -25 250 3 591 -2 599 -10 7 -5 43 -5 91 2 48 6 139 7 230 3 83 -4 164
-7 180 -7 156 2 268 1 367 -2 65 -2 135 0 155 5 21 5 101 11 177 14 76 3 166
9 200 15 34 5 111 12 171 15 128 7 192 21 205 45 5 9 12 57 15 106 4 48 7 91
7 94 2 27 -7 46 -39 75 -21 19 -42 35 -47 35 -19 0 -146 118 -146 135 0 21
-54 192 -76 242 -13 28 -24 55 -24 58 0 4 -15 39 -34 78 -69 146 -87 191 -102
256 -25 104 -33 185 -23 237 26 137 27 167 7 221 -18 49 -74 135 -114 175 -9
10 -29 39 -44 65 -25 43 -32 48 -81 59 -30 7 -88 22 -129 34 -41 12 -93 26
-115 33 -22 6 -44 14 -49 19 -6 4 -22 8 -37 8 -35 0 -45 15 -26 43 7 12 17 40
20 61 3 22 25 82 47 133 38 86 41 100 37 156 -15 185 -27 270 -43 300 -18 34
-56 226 -47 240 2 4 -1 14 -7 22 -8 9 -10 30 -7 53 4 20 3 53 -2 73 -7 29 -2
53 21 120 16 46 33 97 38 112 10 33 -2 115 -30 197 -10 30 -21 84 -25 120 -4
36 -16 91 -26 122 -10 32 -19 77 -19 102 0 24 -9 72 -20 107 -13 42 -17 77
-13 105 3 23 -2 87 -12 144 l-18 101 -72 65 c-40 35 -79 64 -88 64 -9 0 -19 5
-22 10 -3 6 -17 10 -29 10 -13 0 -35 9 -49 20 -19 15 -45 22 -99 25 -40 2 -97
9 -126 14 -29 6 -129 10 -222 9 -101 0 -175 3 -182 9 -7 6 -28 11 -45 11 -45
1 -53 8 -53 49 0 24 -11 53 -33 87 -19 28 -46 77 -61 109 -32 68 -185 234
-225 243 -14 3 -44 14 -66 24 -42 20 -107 35 -115 27z m105 -61 c60 -21 77
-33 152 -111 58 -60 91 -103 104 -138 11 -28 31 -63 44 -79 l24 -29 -19 -32
c-11 -18 -20 -41 -20 -52 0 -15 -11 -25 -37 -35 -21 -8 -40 -16 -43 -18 -3 -1
-13 11 -23 27 -12 20 -44 43 -98 71 -87 43 -116 49 -125 25 -4 -10 -20 -15
-51 -15 -41 0 -44 2 -32 16 20 25 23 64 4 64 -26 0 -75 -29 -75 -45 0 -8 3
-15 8 -15 45 -1 30 -60 -16 -60 -15 0 -56 8 -92 18 -36 11 -71 17 -78 14 -10
-3 -13 3 -10 19 3 21 8 24 41 21 32 -3 37 -1 37 17 0 14 -6 21 -20 21 -19 0
-26 11 -14 23 3 3 26 -3 52 -14 33 -14 48 -17 56 -9 13 13 -17 40 -45 40 -21
0 -36 19 -17 21 7 1 26 2 42 3 23 1 31 7 37 30 6 22 3 33 -15 51 l-23 23 34
16 c26 12 33 22 31 39 -2 18 7 27 49 47 34 16 55 33 59 48 3 12 7 22 8 22 2 0
33 -11 71 -24z m-140 5 c18 -7 15 -10 -21 -29 -22 -11 -46 -28 -53 -36 -8 -10
-29 -16 -55 -16 -38 0 -42 2 -41 25 0 47 105 81 170 56z m-229 -122 c-14 -17
-26 -35 -26 -40 0 -5 -4 -9 -10 -9 -18 0 -10 23 17 52 36 38 51 36 19 -3z
m108 12 c3 -5 -1 -11 -9 -15 -8 -3 -12 -12 -9 -19 4 -11 -7 -16 -43 -20 -26
-3 -50 -4 -52 -2 -2 2 10 18 27 35 30 29 74 40 86 21z m15 -87 c2 -2 2 -6 -1
-9 -8 -9 -68 7 -62 16 5 8 52 2 63 -7z m-169 -12 c0 -4 -5 -13 -10 -18 -6 -6
-15 -49 -21 -97 -10 -71 -15 -87 -29 -87 -24 0 -32 11 -19 27 9 10 8 18 -3 31
-17 20 -12 52 8 52 10 0 15 8 14 23 -4 45 0 58 23 67 28 11 37 12 37 2z m80
-11 c0 -10 -40 -22 -52 -15 -18 11 -6 24 22 24 17 0 30 -4 30 -9z m680 -243
c0 -21 -3 -29 -10 -22 -5 5 -7 19 -4 32 9 31 14 27 14 -10z m-776 5 c9 -23 -4
-33 -50 -36 -50 -3 -53 21 -4 39 46 17 47 17 54 -3z m427 -25 c61 -71 100
-201 63 -215 -9 -3 -27 -17 -40 -29 -30 -31 -42 -30 -50 1 -5 21 1 33 36 66
25 24 39 46 36 55 -5 13 -8 13 -28 0 -18 -12 -32 -13 -63 -6 -22 5 -68 7 -102
3 -71 -7 -113 1 -113 22 0 39 97 65 155 40 47 -19 115 -20 115 -2 0 19 -36 50
-49 43 -15 -10 -161 5 -161 16 0 5 3 7 8 4 4 -2 24 6 44 18 51 31 113 24 149
-16z m-327 -89 c10 -50 -5 -55 -26 -9 -14 31 -23 39 -31 31 -7 -7 -7 -18 1
-36 16 -35 16 -35 -18 -35 -23 0 -31 5 -36 24 -11 43 -1 61 36 67 47 7 66 -4
74 -42z m866 34 c30 -3 120 -7 200 -8 187 -2 337 -17 377 -38 18 -9 39 -17 48
-17 9 0 18 -7 21 -15 3 -8 16 -17 27 -21 31 -10 82 -51 102 -81 10 -14 26 -55
36 -91 15 -54 17 -73 8 -106 -11 -42 -72 -170 -92 -195 -7 -8 -11 -21 -10 -30
3 -24 -59 -70 -102 -75 -41 -5 -50 -10 -41 -24 3 -5 31 -8 62 -7 42 0 58 5 60
15 1 8 20 34 43 58 25 26 38 48 35 57 -4 9 -1 30 6 48 21 53 50 117 53 117 2
0 2 -34 -1 -76 -2 -59 -10 -87 -33 -132 -16 -31 -29 -62 -29 -69 0 -7 -9 -21
-21 -32 -18 -17 -20 -25 -12 -63 10 -46 -2 -122 -26 -167 -20 -36 -57 -208
-65 -297 -2 -23 -6 -46 -10 -52 -3 -6 -8 -38 -11 -72 -3 -34 -12 -75 -20 -90
-8 -16 -15 -45 -15 -64 0 -40 -8 -66 -21 -66 -5 0 -33 -16 -61 -35 -28 -20
-54 -33 -57 -29 -3 3 23 33 57 65 42 40 62 65 58 75 -5 13 -10 12 -36 -6 -36
-26 -40 -13 -5 20 27 26 33 50 12 50 -8 0 -22 -9 -32 -20 -24 -27 -35 -25 -35
5 0 32 -12 32 -65 -5 -24 -16 -47 -30 -50 -30 -4 0 -18 -9 -32 -20 -16 -12
-34 -18 -45 -15 -10 4 -18 2 -18 -4 0 -13 -39 -33 -120 -60 -82 -28 -128 -49
-159 -72 -13 -11 -34 -19 -47 -19 -36 0 -39 -20 -8 -46 37 -30 43 -30 41 3 -2
20 6 31 32 46 39 23 211 86 256 94 17 3 39 13 50 22 39 33 113 81 124 81 19 0
12 -56 -9 -80 -11 -13 -20 -27 -20 -32 0 -12 -36 -44 -72 -63 -16 -9 -28 -24
-28 -34 0 -14 -17 -24 -71 -40 -38 -13 -76 -21 -83 -18 -7 3 -57 -3 -112 -13
-174 -31 -205 -32 -211 -10 -12 45 -99 31 -153 -25 -19 -19 -41 -35 -49 -35
-9 0 -31 -9 -49 -20 -18 -11 -51 -20 -75 -21 -55 0 -141 -46 -145 -77 -3 -19
1 -22 32 -22 27 0 40 -6 52 -25 14 -22 15 -28 2 -46 -7 -12 -32 -31 -53 -43
-22 -12 -47 -37 -57 -55 -23 -46 -23 -46 -61 -24 -31 19 -35 19 -43 4 -5 -9
-9 -45 -9 -81 0 -58 3 -66 23 -75 36 -16 26 -31 -18 -27 -34 4 -41 8 -45 31
-3 14 -13 49 -22 77 -8 29 -17 78 -18 110 -2 56 -3 59 -26 56 -13 -2 -31 -12
-40 -22 -16 -19 -17 -19 -34 0 -28 31 -14 101 32 155 20 25 41 45 46 45 22 0
89 65 113 110 35 65 107 117 219 159 50 18 97 40 105 47 18 15 85 40 127 47
15 3 42 10 58 17 17 7 41 17 55 22 14 6 36 17 50 25 14 8 43 23 66 33 24 12
52 36 68 60 14 22 42 47 61 55 19 8 52 23 73 32 20 10 44 18 52 18 33 3 92 36
86 50 -3 9 0 12 10 8 9 -3 14 2 14 15 0 11 -5 22 -11 24 -7 2 0 18 16 36 37
45 21 64 -28 34 -33 -19 -35 -19 -40 -3 -2 10 4 29 14 42 35 45 23 57 -33 34
-26 -10 -33 50 -17 163 9 69 21 113 41 151 15 30 28 60 28 67 0 8 5 14 10 14
6 0 10 -8 10 -17 0 -10 9 -33 20 -51 15 -25 20 -50 20 -106 0 -40 7 -95 15
-122 8 -27 15 -61 15 -76 0 -36 20 -36 47 0 17 23 19 32 9 48 -6 11 -11 63
-11 122 0 86 -2 102 -15 100 -17 -4 -18 -31 -7 -163 7 -79 6 -80 -9 -45 -12
25 -17 73 -20 164 -2 114 -5 131 -24 151 -11 12 -20 35 -20 51 4 208 6 230 23
255 12 18 15 35 11 57 -8 38 -29 42 -38 7 -4 -16 -13 -25 -27 -25 -23 0 -36
25 -21 43 20 25 31 85 17 97 -9 8 -22 -1 -51 -35 -22 -26 -47 -60 -56 -78 -10
-17 -33 -41 -51 -52 -19 -11 -51 -35 -71 -53 -21 -18 -45 -32 -53 -30 -14 3
-53 96 -53 126 0 20 -42 62 -62 62 -9 0 -26 14 -38 30 -12 17 -26 28 -30 25
-14 -9 -33 -84 -34 -135 -2 -43 -39 -120 -59 -120 -5 0 -5 4 -2 10 9 15 32
154 27 168 -2 7 -10 12 -18 12 -7 0 -17 12 -20 28 -4 15 -14 41 -22 57 -22 44
-41 121 -32 134 3 7 14 9 22 6 16 -6 20 -14 54 -107 9 -27 23 -48 30 -48 18 0
54 72 54 109 0 27 5 31 48 44 46 14 60 14 172 0z m-235 -3 c3 -6 -4 -10 -17
-10 -18 0 -20 2 -8 10 19 12 18 12 25 0z m-55 -20 c0 -5 -2 -10 -4 -10 -3 0
-8 5 -11 10 -3 6 -1 10 4 10 6 0 11 -4 11 -10z m-140 -48 c0 -21 -2 -24 -10
-12 -13 20 -13 53 0 45 6 -3 10 -18 10 -33z m39 -24 c1 -16 -3 -28 -9 -28 -5
0 -10 21 -9 48 0 35 3 42 9 27 5 -11 9 -32 9 -47z m142 15 c-10 -17 -10 -16
-11 3 0 23 13 41 18 25 2 -6 -1 -18 -7 -28z m-421 -33 c0 -5 -4 -10 -10 -10
-5 0 -10 5 -10 10 0 6 5 10 10 10 6 0 10 -4 10 -10z m-123 -26 c8 -18 9 -33 2
-52 -6 -15 -8 -50 -4 -81 5 -42 4 -52 -7 -49 -8 3 -15 28 -19 69 -3 36 -8 70
-12 76 -10 16 2 63 17 63 6 0 16 -12 23 -26z m412 -11 c18 -15 24 -35 31 -105
11 -110 4 -140 -35 -144 -16 -2 -33 -10 -37 -19 -5 -8 -14 -15 -20 -15 -6 0
-4 7 4 18 18 19 17 110 -1 170 -8 27 -6 42 7 73 19 44 22 46 51 22z m-318 -52
c23 -18 23 -19 4 -37 -18 -19 -18 -19 9 -22 29 -4 30 -19 2 -36 -14 -9 -23 -5
-47 22 -55 61 -29 122 32 73z m508 -53 c-27 -10 -30 -8 -22 20 5 22 6 22 25 5
19 -17 19 -17 -3 -25z m-339 -54 c48 -19 65 -45 50 -74 -10 -19 -14 -17 -75
32 -36 28 -65 53 -65 55 0 9 55 1 90 -13z m710 -8 c0 -7 10 -13 23 -13 57 -1
55 4 52 -100 -2 -54 -4 -100 -5 -103 -1 -3 -10 32 -19 78 -10 46 -23 88 -29
94 -15 15 -42 2 -42 -21 0 -27 -34 -47 -90 -55 -55 -8 -72 -17 -61 -35 7 -11
18 -11 62 2 58 18 77 15 35 -5 -21 -9 -26 -17 -22 -33 5 -20 1 -21 -77 -23
-73 -2 -87 -5 -125 -32 -23 -17 -46 -30 -51 -30 -5 0 -11 -13 -14 -29 -5 -25
-12 -29 -44 -33 -21 -3 -46 -8 -56 -12 -15 -7 -16 -5 -9 15 8 20 15 23 54 20
l46 -2 6 45 c7 47 34 78 79 92 43 13 153 85 212 139 63 57 75 64 75 41z m-970
-36 c0 -5 -2 -10 -4 -10 -3 0 -8 5 -11 10 -3 6 -1 10 4 10 6 0 11 -4 11 -10z
m184 -11 c15 -12 25 -24 22 -27 -3 -2 -11 0 -19 6 -7 6 -35 12 -62 14 l-50 3
35 12 c47 15 44 16 74 -8z m-154 -101 c-7 -24 -19 -64 -27 -90 -17 -57 -14
-103 7 -103 10 0 15 10 15 30 1 49 15 117 32 157 19 45 77 66 113 41 13 -9 33
-13 49 -10 15 3 40 -1 55 -9 16 -8 35 -14 44 -14 28 0 81 -50 102 -97 28 -64
25 -94 -7 -62 -17 17 -43 3 -54 -31 -6 -16 -17 -30 -24 -30 -18 0 -72 -93 -57
-98 7 -2 12 -10 12 -18 0 -19 37 -83 71 -122 16 -18 29 -40 29 -48 0 -8 17
-41 39 -72 21 -31 55 -90 75 -131 20 -40 50 -89 67 -108 33 -39 49 -73 49
-106 -1 -29 -74 -81 -117 -82 -29 -2 -32 1 -42 41 -6 24 -11 53 -11 66 0 23
-16 48 -32 48 -4 0 -5 -24 -2 -52 l6 -53 -20 24 c-12 15 -22 45 -24 78 -3 34
-11 60 -23 71 -17 16 -17 15 -11 -28 l6 -45 -17 30 c-9 17 -22 35 -28 40 -7 6
-16 29 -19 53 -4 24 -22 77 -42 118 -30 64 -35 83 -33 139 2 45 6 65 15 65 18
0 26 17 19 40 -9 27 -35 25 -35 -2 -1 -22 -1 -22 -18 5 -34 55 -68 23 -57 -55
3 -29 6 -64 6 -78 -1 -32 -22 -184 -25 -188 -2 -1 -6 12 -10 30 -4 18 -3 34 1
35 10 4 6 263 -4 317 -10 48 -29 57 -43 21 -14 -38 -12 -77 5 -102 14 -19 34
-206 21 -193 -20 21 -49 122 -47 168 2 53 -1 57 -41 53 -18 -2 -33 37 -43 109
-6 47 8 112 44 215 12 33 24 66 27 74 2 8 7 11 11 7 3 -3 0 -25 -7 -48z m-76
-73 c-4 -8 -8 -15 -10 -15 -2 0 -4 7 -4 15 0 8 4 15 10 15 5 0 7 -7 4 -15z
m904 -47 c2 -11 -3 -18 -11 -18 -8 0 -26 -9 -40 -20 -15 -12 -49 -28 -77 -36
-48 -14 -71 -36 -56 -51 4 -4 21 1 39 10 18 9 48 20 67 23 l35 7 -25 -27 c-14
-15 -25 -34 -25 -42 0 -8 -14 -24 -31 -35 l-32 -20 -21 27 c-28 36 -35 65 -27
119 10 66 38 83 128 82 61 -2 73 -5 76 -19z m792 -44 c0 -25 -4 -53 -10 -63
-7 -14 -4 -25 15 -45 15 -16 26 -43 30 -73 3 -27 8 -58 11 -70 5 -26 -13 -30
-46 -13 -16 9 -19 18 -14 54 5 35 2 51 -20 88 -24 41 -24 46 -11 72 9 16 18
46 21 67 8 51 24 40 24 -17z m-1772 -1 c5 -10 10 -38 10 -63 0 -28 13 -76 35
-127 22 -52 31 -86 26 -95 -5 -7 -9 -25 -9 -40 0 -16 -2 -28 -5 -28 -2 0 -22
19 -45 43 -42 44 -63 99 -58 149 3 35 -15 44 -20 11 -5 -33 -22 -28 -22 5 0
58 46 162 71 162 5 0 12 -8 17 -17z m733 -80 c3 -18 15 -45 25 -60 10 -16 17
-42 16 -59 -1 -17 4 -47 13 -67 35 -84 10 -118 -77 -107 -73 10 -100 19 -115
39 -18 24 -16 33 8 26 11 -4 44 -3 72 1 l52 9 -55 5 c-45 4 -54 8 -52 23 3 19
-19 23 -48 7 -42 -23 -83 91 -44 122 9 7 30 27 48 43 34 33 87 54 126 52 19
-2 26 -9 31 -34z m279 -42 c0 -6 -22 -22 -50 -37 -27 -15 -50 -31 -50 -36 0
-13 42 -9 74 7 37 20 36 20 36 -17 -1 -29 -7 -37 -54 -65 -60 -37 -87 -41
-110 -17 -17 17 -19 35 -6 74 7 23 8 23 9 4 1 -12 8 -25 17 -28 19 -7 33 2 19
12 -6 4 -16 18 -24 31 -12 22 -11 26 5 39 46 35 134 56 134 33z m20 -160 c0
-37 -15 -70 -36 -80 -30 -13 -34 -14 -34 -2 0 5 8 12 18 15 9 2 4 4 -12 3 -43
-3 -42 18 1 47 38 26 63 33 63 17z m725 -15 c37 -16 81 -58 89 -85 13 -44 27
-133 23 -138 -3 -3 -13 9 -21 26 -17 31 -74 81 -94 81 -7 0 -12 -11 -12 -25 0
-16 5 -25 13 -23 22 4 64 -31 81 -70 17 -37 17 -39 -13 -117 -27 -69 -29 -84
-20 -118 6 -22 12 -83 15 -136 6 -146 12 -189 34 -237 22 -51 29 -83 35 -174
3 -36 10 -100 15 -142 10 -67 9 -82 -6 -114 -16 -32 -20 -35 -48 -30 -17 4
-42 14 -56 25 -24 17 -65 70 -72 93 -2 6 -9 8 -16 4 -30 -18 41 -111 109 -142
26 -11 38 -22 34 -32 -3 -7 -5 -26 -5 -41 0 -22 -4 -27 -22 -27 -13 1 -29 7
-36 14 -8 7 -18 10 -23 7 -19 -12 -81 9 -111 37 -17 16 -48 38 -67 48 -20 10
-56 32 -80 50 l-43 32 26 27 c14 15 26 30 26 33 0 3 -44 8 -97 12 -66 5 -112
14 -141 27 -43 21 -135 50 -162 52 -8 0 -39 0 -67 -1 -42 -2 -53 -6 -53 -18 0
-14 8 -16 53 -10 40 4 67 1 117 -16 54 -19 60 -23 38 -26 -38 -5 -35 -26 4
-37 18 -6 34 -18 36 -27 3 -15 -3 -16 -50 -11 -29 3 -60 11 -68 18 -8 7 -28
15 -45 18 -50 8 -145 53 -161 76 -18 25 -37 27 -54 5 -11 -13 -9 -20 16 -45
16 -16 39 -31 49 -33 51 -10 89 -38 165 -121 45 -49 90 -106 100 -126 11 -20
31 -50 45 -67 34 -41 56 -105 59 -173 2 -31 7 -62 12 -70 12 -19 29 -82 59
-219 14 -63 31 -140 39 -170 21 -82 48 -221 43 -226 -19 -19 -85 62 -106 131
-30 96 -71 194 -159 376 -29 59 -52 110 -52 113 0 16 -91 187 -124 233 -38 53
-63 70 -78 55 -6 -6 11 -30 39 -59 53 -55 88 -119 208 -388 87 -195 125 -290
155 -393 24 -80 44 -101 96 -98 19 1 34 -3 34 -10 0 -6 27 -35 60 -65 39 -35
60 -62 60 -77 0 -12 -14 -58 -31 -102 -25 -65 -39 -88 -80 -123 -27 -24 -66
-68 -87 -98 -81 -119 -97 -138 -132 -151 -19 -7 -38 -11 -42 -10 -3 1 -12 -5
-18 -13 -7 -8 -9 -15 -5 -15 4 0 2 -7 -5 -15 -7 -8 -21 -15 -31 -15 -16 0 -19
8 -19 45 0 38 -3 45 -19 45 -15 0 -21 -10 -26 -40 -4 -21 -4 -48 0 -60 4 -14
2 -20 -9 -20 -16 0 -33 78 -22 105 7 20 -23 33 -35 14 -5 -8 -7 -44 -5 -81 3
-58 1 -67 -15 -71 -15 -4 -20 2 -25 29 -3 19 -3 50 0 69 6 28 4 35 -9 35 -21
0 -45 -59 -45 -108 0 -47 -21 -72 -45 -52 -10 8 -13 21 -9 33 3 11 6 37 6 59
-1 25 4 38 12 38 21 0 27 42 10 67 -14 22 -14 23 22 23 21 0 66 -5 101 -11 35
-6 67 -8 71 -4 7 7 -19 32 -72 71 l-28 20 36 36 c20 20 36 45 36 56 0 11 6 24
13 30 7 6 26 38 42 72 l29 61 41 -7 c58 -11 97 -11 122 -1 35 15 37 37 3 49
-32 10 -43 33 -12 25 9 -3 37 -8 63 -11 36 -5 48 -12 63 -37 12 -20 23 -28 33
-25 11 5 13 2 8 -11 -17 -41 -17 -53 -2 -53 23 0 34 26 40 90 3 30 8 65 12 78
6 18 4 22 -13 22 -25 0 -89 26 -97 40 -4 6 -16 8 -26 5 -11 -4 -27 -1 -35 5
-8 7 -28 15 -46 19 -17 4 -33 12 -36 20 -3 10 3 11 26 6 38 -8 53 12 24 34
-23 18 -61 90 -107 206 -50 122 -118 267 -183 390 -33 60 -72 137 -88 170 -25
52 -36 63 -84 87 -80 40 -112 79 -108 132 3 36 0 41 -19 44 -13 2 -23 -1 -23
-7 0 -6 -9 -11 -20 -11 -35 0 -67 21 -91 61 -21 33 -29 38 -61 39 -64 0 -93
73 -42 107 25 16 27 16 39 0 6 -9 15 -14 18 -11 8 8 -14 54 -25 54 -19 0 -67
-31 -83 -52 -16 -23 -17 -22 -9 12 4 19 8 53 8 75 2 52 9 62 49 70 17 4 52 18
76 31 25 13 78 31 119 40 72 16 74 16 96 -5 28 -26 47 -27 77 0 23 19 23 20 2
10 -27 -14 -43 -14 -43 -1 0 18 47 22 78 6 20 -10 42 -14 64 -10 74 14 212 54
227 66 9 7 25 18 36 24 11 6 34 19 52 29 35 20 23 23 183 -34 49 -17 56 -17
67 -4 11 14 15 14 39 -2 22 -14 33 -15 63 -7 78 23 119 32 138 32 11 0 27 8
37 19 16 17 15 18 -28 24 -25 4 -58 2 -75 -4 -49 -17 -57 -5 -10 15 43 18 86
37 102 44 4 2 7 -5 8 -15 0 -14 3 -12 10 6 5 14 7 31 5 38 -8 19 -36 16 -36
-5 0 -21 -40 -39 -130 -57 -36 -7 -87 -20 -115 -28 -50 -14 -50 -14 -51 9 -2
20 5 26 40 35 103 28 211 69 226 87 8 11 24 24 35 30 31 18 -5 15 -48 -3 -50
-21 -60 -20 -47 4 22 42 9 60 -52 75 -22 5 -29 2 -40 -21 -20 -41 -40 -43 -26
-1 25 72 64 102 75 58 8 -29 37 -21 41 11 3 23 -1 27 -32 33 -25 5 -36 12 -36
24 0 10 -5 23 -12 30 -10 10 -4 19 24 42 53 44 56 100 6 100 -16 0 -18 5 -12
38 8 44 18 58 47 66 20 6 67 66 67 87 0 17 -22 9 -42 -16 -11 -14 -24 -25 -29
-25 -13 0 -11 49 4 90 23 66 32 71 92 46z m-1681 -141 c4 -14 2 -25 -3 -25
-10 0 -101 131 -101 146 1 17 98 -96 104 -121z m776 96 c0 -5 -6 -14 -14 -20
-12 -10 -13 -8 -9 8 5 21 23 30 23 12z m-543 -78 c-3 -10 -5 -4 -5 12 0 17 2
24 5 18 2 -7 2 -21 0 -30z m426 31 c32 -6 37 -10 37 -34 0 -58 -45 -60 -89 -4
-32 41 -20 49 52 38z m267 -14 c0 -5 -9 -10 -19 -10 -11 0 -23 5 -26 10 -4 6
5 10 19 10 14 0 26 -4 26 -10z m-842 -91 c-2 -4 -14 0 -27 10 -21 16 -22 20
-10 42 l12 24 14 -34 c8 -18 13 -37 11 -42z m141 -26 c1 -17 8 -59 17 -92 17
-67 43 -234 38 -240 -14 -16 -75 255 -80 354 -4 77 -3 79 10 45 8 -19 15 -49
15 -67z m507 49 c-12 -11 -18 7 -10 30 l8 23 4 -23 c2 -13 1 -26 -2 -30z m-56
-49 c-8 -3 -21 -10 -27 -16 -9 -7 -13 -5 -13 7 0 11 8 16 28 15 15 0 21 -3 12
-6z m397 -20 c-15 -16 -17 -16 -17 -1 0 9 6 18 13 21 20 7 22 -2 4 -20z m-967
-12 c0 -5 3 -18 6 -28 5 -16 4 -16 -10 1 -18 23 -20 36 -6 36 6 0 10 -4 10 -9z
m700 -26 c-7 -9 -15 -13 -18 -10 -3 2 1 11 8 20 7 9 15 13 18 10 3 -2 -1 -11
-8 -20z m740 -59 c0 -8 -4 -18 -10 -21 -5 -3 -10 3 -10 14 0 12 5 21 10 21 6
0 10 -6 10 -14z m-1331 -91 c0 -5 -6 1 -14 15 -8 14 -14 34 -14 45 0 13 5 8
14 -15 7 -19 14 -39 14 -45z m-484 -717 c-4 -35 -8 -67 -9 -73 -4 -31 -133
-68 -186 -54 -8 2 -15 -3 -15 -11 0 -11 15 -16 58 -20 31 -3 57 -9 57 -15 -1
-5 -8 -9 -16 -7 -9 2 -22 -2 -30 -9 -7 -6 -25 -9 -40 -6 -24 4 -54 -14 -54
-33 0 -11 37 -23 49 -16 5 4 21 1 35 -5 27 -12 36 -52 16 -64 -5 -3 -10 -21
-10 -39 0 -34 -15 -56 -38 -56 -22 0 -62 48 -62 74 0 26 -23 50 -62 65 -36 13
-46 -1 -49 -69 -3 -62 23 -124 65 -157 31 -25 40 -93 13 -93 -16 0 -67 89 -67
118 0 11 -7 25 -14 32 -24 19 -56 93 -71 165 -14 67 -14 69 12 112 17 30 43
54 85 78 32 19 63 35 67 35 10 0 64 24 116 52 31 17 131 54 153 57 2 1 1 -27
-3 -61z m77 -116 c-4 -111 -6 -116 -33 -102 -19 11 -20 18 -16 88 3 42 8 92
12 111 l8 34 17 -22 c13 -18 16 -39 12 -109z m1476 32 c24 -20 41 -39 38 -41
-6 -6 -118 56 -128 71 -4 6 -8 16 -8 23 0 17 46 -8 98 -53z m61 40 c25 -5 29
-9 20 -20 -6 -8 -9 -21 -5 -29 3 -10 2 -13 -5 -10 -6 4 -14 18 -19 31 -6 15
-15 22 -24 18 -8 -3 -17 -1 -21 5 -7 12 9 14 54 5z m-1454 -42 c14 -9 33 -74
39 -129 3 -30 12 -49 32 -67 l29 -25 -25 -1 c-49 0 -71 12 -77 41 -3 16 -11
29 -18 29 -7 0 -14 20 -18 53 -9 87 5 123 38 99z m1478 -97 c54 -25 58 -29 43
-43 -10 -11 -37 -17 -76 -18 -52 -2 -60 0 -66 18 -6 20 -75 57 -106 58 -10 0
-26 8 -37 19 -10 10 -27 24 -37 30 -15 10 -8 11 38 6 35 -4 59 -2 63 4 4 7 27
0 63 -18 31 -16 83 -41 115 -56z m-1236 -5 c9 -31 13 -35 44 -35 44 0 45 -24
2 -42 -32 -13 -33 -13 -48 23 -8 20 -15 42 -15 50 0 7 -4 16 -10 19 -5 3 -10
16 -10 28 0 19 2 19 14 7 8 -8 19 -31 23 -50z m1352 1 c23 -12 30 -21 22 -26
-7 -4 -18 0 -25 11 -8 11 -21 15 -35 11 -14 -3 -21 -1 -21 9 0 19 18 17 59 -5z
m-1044 -73 c10 -20 32 -44 48 -53 16 -9 37 -36 47 -59 13 -32 27 -46 59 -60
22 -11 41 -24 41 -30 0 -25 99 -213 114 -219 10 -4 15 -11 11 -16 -3 -6 5 -20
17 -32 13 -12 16 -19 8 -15 -8 4 -5 -1 7 -12 12 -11 19 -22 16 -26 -3 -3 2 -8
11 -12 9 -3 14 -10 11 -14 -3 -4 6 -15 19 -23 32 -22 82 -100 161 -254 62
-123 67 -138 67 -195 -1 -139 -2 -148 -16 -148 -11 0 -15 26 -20 118 -6 107
-10 123 -41 187 -33 65 -112 177 -227 321 -27 32 -48 63 -48 68 0 5 -16 26
-35 47 -19 22 -35 48 -35 59 0 11 -11 27 -25 36 -32 21 -89 100 -136 189 -29
55 -47 76 -83 97 -48 29 -106 82 -106 98 0 16 35 16 75 0 27 -11 47 -29 60
-52z m783 44 c3 -9 -2 -13 -14 -10 -9 1 -19 9 -22 16 -3 9 2 13 14 10 9 -1 19
-9 22 -16z m321 -31 c11 -7 10 -11 -6 -20 -22 -11 -33 -6 -33 16 0 15 18 17
39 4z m-1836 -18 c2 -5 -2 -19 -9 -33 l-14 -25 0 33 c0 29 13 43 23 25z m-282
-93 l-10 -25 0 27 c-1 14 2 35 6 45 7 17 8 17 11 -2 1 -12 -2 -32 -7 -45z
m437 48 c16 -16 15 -28 -3 -28 -8 0 -15 2 -15 4 0 2 -3 11 -6 20 -7 19 7 21
24 4z m1892 -8 c0 -11 -4 -20 -9 -20 -5 0 -7 9 -4 20 3 11 7 20 9 20 2 0 4 -9
4 -20z m-2080 -91 c-12 -29 -69 -79 -90 -79 -20 0 1 43 41 83 21 21 42 48 46
60 7 20 8 20 11 -7 2 -15 -2 -41 -8 -57z m1083 11 c60 -35 62 -38 125 -160 35
-69 70 -136 77 -150 7 -14 27 -56 44 -95 18 -38 45 -96 62 -128 33 -63 35 -94
3 -60 -31 34 -38 45 -72 104 -18 31 -38 62 -46 68 -7 6 -19 32 -26 56 -8 29
-28 61 -55 88 -27 27 -52 69 -71 115 -17 41 -36 74 -46 78 -20 6 -23 20 -8 29
21 13 9 35 -27 53 -21 10 -47 17 -57 14 -14 -3 -17 0 -12 13 3 9 6 24 6 32 0
14 3 13 21 -3 12 -10 49 -35 82 -54z m598 55 c24 -8 79 -19 122 -24 56 -7 89
-16 117 -35 25 -16 54 -26 76 -26 21 0 45 -6 53 -14 19 -17 156 -56 197 -56
29 -1 125 -26 199 -53 23 -8 49 -28 61 -46 12 -17 45 -58 73 -90 59 -68 81
-126 81 -218 0 -64 -11 -79 -30 -44 -14 28 -39 51 -55 51 -25 0 -23 -29 6 -67
35 -46 45 -81 59 -198 12 -112 37 -180 150 -410 32 -63 74 -193 102 -310 7
-27 24 -67 39 -88 32 -44 95 -97 116 -97 8 0 13 -6 10 -12 -2 -7 2 -30 9 -52
8 -21 11 -42 8 -48 -3 -5 2 -18 11 -28 10 -11 15 -26 12 -34 -5 -13 -13 -12
-59 5 -29 10 -54 19 -55 19 -2 0 -3 -12 -3 -27 0 -42 -12 -53 -71 -68 -72 -19
-85 -19 -109 5 -15 15 -18 25 -11 38 6 12 6 23 0 33 -8 12 -12 11 -27 -7 -10
-12 -43 -34 -73 -49 -30 -15 -64 -36 -77 -46 -22 -17 -26 -17 -66 -2 -47 18
-43 18 -176 -32 -57 -22 -170 -16 -285 15 -48 12 -106 20 -145 19 -154 -4
-177 -3 -212 5 -32 7 -37 5 -43 -13 -11 -36 -49 -36 -105 0 -60 39 -68 69 -17
69 18 0 38 -5 44 -11 7 -7 19 -9 28 -5 12 4 14 10 5 25 -5 11 -10 35 -10 53 0
19 -11 49 -25 71 -26 37 -43 45 -60 28 -6 -5 -21 -11 -35 -13 -37 -5 -38 27
-2 46 41 21 98 94 84 108 -12 12 -62 -17 -62 -37 0 -8 -32 -16 -92 -24 -51 -7
-120 -16 -153 -21 -68 -9 -80 -6 -39 11 16 6 37 15 46 20 10 5 28 9 40 9 13 0
32 7 42 15 11 8 30 15 42 15 12 0 33 9 47 20 14 11 31 20 39 20 43 2 178 116
178 152 0 11 18 42 39 70 22 27 38 55 35 62 -8 20 52 66 86 66 l29 0 -20 -34
c-23 -40 -15 -49 33 -35 40 10 84 -1 103 -27 9 -14 12 -13 26 3 9 10 26 50 39
89 16 49 28 70 37 67 7 -3 13 -13 13 -24 0 -10 9 -23 20 -29 12 -6 20 -21 20
-35 0 -14 5 -25 11 -25 6 0 8 7 5 16 -24 63 -16 78 27 49 18 -11 35 -13 76 -6
70 11 91 33 98 104 5 51 8 57 29 57 31 0 51 23 65 72 9 34 8 48 -6 78 -16 36
-71 81 -115 95 -25 8 -26 21 0 35 28 15 25 38 -7 46 -16 4 -38 13 -49 21 -12
8 -53 15 -92 16 -70 3 -112 21 -94 39 5 5 36 17 68 27 78 25 82 41 9 41 -46 0
-63 5 -87 25 -24 21 -40 25 -90 25 -56 0 -62 2 -100 40 -23 22 -50 40 -60 40
-10 0 -36 6 -58 12 -34 11 -40 17 -40 40 0 18 -5 28 -15 28 -10 0 -15 10 -15
30 0 17 -7 33 -17 38 -13 8 -16 21 -15 55 3 41 0 46 -32 65 -28 16 -36 29 -45
70 -6 27 -22 75 -35 106 l-25 56 53 0 c29 0 72 -7 97 -15z m-1600 -44 c4 -58
-18 -94 -72 -115 -66 -27 -78 -21 -37 20 20 19 44 55 53 78 13 35 21 43 36 39
10 -3 20 -13 20 -22z m-221 -61 c13 -8 13 -10 -2 -10 -9 0 -20 5 -23 10 -8 13
5 13 25 0z m15 -74 c31 -33 34 -34 71 -24 22 6 58 12 81 15 37 4 41 3 37 -14
-5 -17 -12 -19 -60 -15 -43 4 -59 1 -74 -13 -11 -10 -17 -23 -13 -29 3 -6 0
-5 -8 2 -7 6 -25 12 -40 12 -23 0 -28 6 -38 44 -14 55 -14 56 0 56 7 0 26 -15
44 -34z m641 -55 c17 -12 79 -40 140 -62 67 -24 116 -48 127 -62 25 -32 45
-109 57 -217 5 -52 14 -129 20 -170 11 -90 13 -200 3 -200 -20 1 -83 81 -103
130 -12 30 -32 78 -46 106 -13 28 -24 54 -24 58 0 4 -16 38 -35 77 -19 39 -35
80 -35 91 0 11 -13 48 -30 83 -28 59 -71 106 -150 166 l-35 27 41 -3 c23 -1
53 -11 70 -24z m-113 -89 c7 -6 23 -30 36 -53 l24 -42 -33 6 c-18 4 -50 23
-71 42 -22 19 -44 35 -51 35 -16 0 -68 51 -68 66 0 33 96 1 163 -54z m-347
-90 c-6 -6 -26 43 -25 61 0 7 7 -3 15 -22 8 -18 13 -36 10 -39z m264 3 c25
-24 51 -36 95 -45 33 -7 66 -17 73 -22 8 -7 12 -7 12 0 0 11 30 25 38 17 3 -3
-3 -14 -13 -25 -24 -26 -83 -26 -132 0 -21 11 -43 20 -49 20 -7 0 -31 23 -54
50 -47 56 -28 59 30 5z m-142 7 c20 -30 11 -28 -19 4 -13 15 -18 25 -10 22 8
-2 21 -14 29 -26z m-228 -13 c0 -6 16 -35 36 -66 19 -31 40 -66 45 -79 4 -13
13 -24 18 -24 12 0 75 -89 68 -96 -7 -7 -207 244 -207 260 0 15 20 26 33 19 4
-2 7 -9 7 -14z m280 -121 c0 -3 24 -23 53 -44 28 -21 73 -57 99 -81 26 -24 52
-43 58 -43 5 0 10 -15 10 -34 0 -38 22 -97 53 -140 25 -36 10 -28 -60 32 -29
24 -55 52 -58 62 -3 10 -38 46 -78 80 -40 35 -80 77 -91 94 -28 46 -96 183
-96 193 1 9 109 -108 110 -119z m11 60 c46 -56 54 -69 36 -62 -13 5 -62 61
-81 92 -17 29 12 9 45 -30z m683 -43 c28 -45 28 -46 20 -158 l-7 -112 -13 75
c-8 41 -18 95 -23 120 -30 133 -25 149 23 75z m1051 -67 c48 4 58 1 85 -22 18
-14 36 -26 41 -26 6 0 7 -4 4 -10 -3 -5 -17 -10 -31 -10 -46 0 -26 -54 31 -84
17 -8 24 -15 18 -16 -24 0 -13 -30 12 -35 14 -3 35 -7 48 -10 12 -2 29 0 37 5
13 8 13 13 2 31 -12 19 -12 20 10 13 27 -8 76 -44 60 -44 -15 0 -24 -31 -12
-45 6 -7 36 -25 66 -40 31 -15 58 -35 61 -44 2 -9 10 -26 15 -38 14 -29 4 -53
-23 -53 -18 0 -20 -4 -15 -25 5 -18 2 -25 -9 -25 -8 0 -15 8 -15 18 0 24 -19
42 -45 42 -17 0 -22 -7 -24 -30 -3 -59 -5 -70 -13 -70 -4 0 -22 -13 -40 -29
-45 -39 -98 -65 -109 -54 -6 6 5 14 29 21 47 14 77 45 90 95 12 43 -2 97 -39
148 -12 17 -18 33 -15 37 6 5 18 2 76 -22 8 -3 22 -1 30 4 13 9 11 13 -10 30
-47 36 -70 45 -89 33 -13 -8 -23 -6 -44 13 -17 14 -41 24 -60 24 -51 0 -103
22 -99 42 4 20 -34 33 -74 25 -20 -3 -28 1 -40 26 -13 23 -13 29 -3 25 81 -30
88 -31 114 -20 29 14 29 35 -1 40 -49 7 -64 13 -64 26 0 16 -59 56 -83 56 -25
0 -31 20 -11 35 16 11 23 9 51 -14 30 -24 40 -27 88 -23z m-1495 -10 c26 -42
25 -43 -9 -58 -26 -10 -33 -9 -60 11 -32 23 -40 41 -18 38 26 -3 36 2 42 21 9
29 22 25 45 -12z m83 -183 c20 -23 37 -46 37 -50 0 -4 9 -20 21 -37 37 -51 15
-40 -38 21 -62 69 -94 121 -86 135 4 6 11 2 17 -9 6 -10 28 -37 49 -60z m414
-2 c-2 -16 -4 -5 -4 22 0 28 2 40 4 28 2 -13 2 -35 0 -50z m63 -48 c20 -74 30
-249 15 -264 -3 -2 -13 2 -21 11 -12 11 -13 21 -7 33 6 11 7 35 1 64 -23 118
-28 159 -22 199 4 24 8 42 9 40 2 -2 13 -39 25 -83z m-536 39 c3 -8 2 -12 -4
-9 -6 3 -10 10 -10 16 0 14 7 11 14 -7z m1512 -29 c27 -8 63 -15 80 -15 43 0
61 -23 44 -54 -14 -28 -5 -50 17 -42 21 9 40 -9 62 -60 17 -37 18 -47 6 -80
-16 -48 -48 -74 -91 -74 l-34 0 0 50 c0 67 -17 104 -82 171 -29 31 -61 71 -71
88 -18 30 -18 31 1 31 10 0 41 -7 68 -15z m-1398 -111 c49 -52 53 -64 15 -38
-36 23 -43 30 -79 84 -46 67 -50 79 -12 37 18 -21 52 -58 76 -83z m329 -11
c-2 -21 -4 -6 -4 32 0 39 2 55 4 38 2 -18 2 -50 0 -70z m-542 37 c10 -11 16
-20 13 -20 -3 0 -13 9 -23 20 -10 11 -16 20 -13 20 3 0 13 -9 23 -20z m306
-72 c11 -21 11 -22 -4 -9 -10 7 -17 17 -17 22 0 15 9 10 21 -13z m-31 -47 c14
-11 22 -22 19 -26 -10 -9 -33 5 -58 37 -21 25 -21 29 -5 20 10 -6 30 -20 44
-31z m65 1 c-3 -3 -11 0 -18 7 -9 10 -8 11 6 5 10 -3 15 -9 12 -12z m212 -4
c-3 -8 -6 -5 -6 6 -1 11 2 17 5 13 3 -3 4 -12 1 -19z m-158 -104 c-28 -30 -37
-30 -66 -2 -30 28 -29 34 10 58 l32 20 23 -26 23 -26 -22 -24z m686 31 c29
-13 35 -20 22 -23 -30 -6 -87 17 -80 34 3 8 8 13 12 11 3 -2 24 -12 46 -22z
m465 -29 c0 -22 -28 -82 -44 -96 -20 -16 -20 -9 1 57 15 48 43 74 43 39z m30
-46 c0 -20 -9 -40 -26 -57 -19 -18 -23 -28 -14 -37 17 -17 43 5 60 50 11 28
20 39 33 36 21 -4 21 -3 -5 -74 -17 -47 -24 -57 -37 -52 -9 4 -38 10 -66 13
l-50 6 43 42 c26 26 42 51 42 66 0 21 7 37 17 37 2 0 3 -14 3 -30z m321 20
c24 -13 25 -46 1 -59 -29 -15 -100 -17 -115 -2 -13 13 -11 14 57 54 36 20 32
20 57 7z m-1456 -60 l7 -35 -26 24 c-28 26 -34 56 -13 64 15 5 22 -7 32 -53z
m319 -2 c-34 -68 -34 -68 -34 -27 0 22 8 44 20 57 35 38 41 24 14 -30z m-400
-24 c42 -36 74 -70 71 -74 -3 -5 -1 -12 5 -15 7 -4 8 -23 4 -50 -6 -41 9 -104
37 -157 5 -10 9 -38 9 -63 0 -43 -2 -46 -31 -52 -17 -3 -37 -16 -46 -29 -16
-26 -33 -23 -33 4 0 10 14 26 30 35 22 13 30 25 29 45 -3 78 -39 113 -39 38 0
-38 -3 -46 -19 -46 -10 0 -24 -7 -31 -15 -7 -8 -10 -15 -8 -15 3 0 2 -21 -3
-48 -5 -36 -3 -51 8 -64 16 -18 10 -38 -12 -38 -18 0 -45 72 -45 120 0 46 -16
53 -31 13 -8 -21 -6 -37 10 -76 12 -27 18 -54 15 -59 -9 -15 -44 22 -44 47 0
31 -11 38 -31 19 -17 -15 -18 -14 -27 17 -6 24 -5 37 4 44 7 6 18 37 24 70 13
62 26 95 42 106 25 16 30 130 13 272 -7 54 11 48 99 -29z m548 4 c-7 -7 -12
-8 -12 -2 0 14 12 26 19 19 2 -3 -1 -11 -7 -17z m-126 -56 c-18 -53 -34 -71
-81 -93 -21 -10 -34 -26 -43 -54 -13 -42 -44 -75 -70 -75 -8 0 -21 -8 -28 -17
-13 -17 -15 -17 -29 1 -22 28 -19 45 10 56 17 6 25 17 25 33 0 13 10 32 23 43
12 11 32 33 44 49 12 17 23 25 23 19 0 -6 -16 -30 -36 -53 -29 -33 -34 -45
-24 -54 9 -9 15 -6 28 13 8 14 41 50 72 80 31 30 65 68 75 83 25 39 30 26 11
-31z m70 -40 c-14 -14 -16 -14 -16 -1 0 20 23 44 29 28 2 -6 -4 -18 -13 -27z
m-352 -26 c-5 -14 -9 -15 -15 -5 -5 8 -3 17 4 21 15 9 19 4 11 -16z m306 -41
c0 -8 4 -15 8 -15 5 0 17 -7 28 -15 17 -14 14 -15 -43 -9 -46 5 -67 3 -80 -7
-15 -12 -15 -12 -7 4 9 15 66 52 87 56 4 0 7 -6 7 -14z m-98 -118 c-9 -10 -19
-41 -22 -69 l-5 -51 -45 -1 c-25 -1 -51 2 -57 7 -23 17 -14 47 18 65 36 20 99
80 99 95 0 6 6 2 14 -9 13 -17 12 -21 -2 -37z m-146 -158 c12 -14 28 -19 49
-18 21 2 38 -4 53 -19 15 -15 35 -22 65 -23 31 0 37 -2 22 -8 -24 -9 -270 1
-281 12 -7 7 51 72 67 76 3 0 14 -8 25 -20z m534 -37 c0 -10 -63 -44 -76 -41
-23 6 -262 -24 -371 -46 -52 -11 -77 -10 -157 3 -53 8 -96 19 -96 23 0 15 35
18 95 10 98 -14 263 -8 330 12 33 9 87 19 120 22 33 3 78 10 100 14 55 12 55
12 55 3z m1637 -121 c4 -26 2 -41 -5 -41 -16 0 -29 28 -37 80 l-7 45 22 -21
c12 -12 24 -39 27 -63z m-1744 37 c15 -7 27 -16 27 -20 0 -10 -120 -14 -136
-5 -8 5 -46 7 -85 5 -94 -4 -88 9 9 17 42 3 84 8 92 9 34 8 68 5 93 -6z m137
-12 c0 -3 -4 -8 -10 -11 -5 -3 -10 -1 -10 4 0 6 5 11 10 11 6 0 10 -2 10 -4z
m36 -31 c-3 -8 -14 -15 -25 -15 -19 0 -19 1 2 25 22 24 34 18 23 -10z m-636
11 l45 -13 -40 -6 c-22 -2 -50 -8 -62 -12 -19 -6 -23 -4 -23 12 0 37 12 40 80
19z m187 8 c-3 -3 -12 -4 -19 -1 -8 3 -5 6 6 6 11 1 17 -2 13 -5z m-287 -37
c15 -32 47 -48 59 -29 3 6 26 13 51 17 25 3 72 13 105 22 48 12 90 14 205 9
79 -4 146 -8 148 -10 1 -2 0 -15 -3 -29 -7 -24 -8 -25 -98 -23 -143 2 -475
-14 -501 -24 -13 -5 -33 -22 -46 -39 -18 -27 -28 -31 -65 -31 -75 0 -129 66
-92 112 15 19 57 30 71 18 6 -4 27 -11 48 -15 32 -6 39 -3 64 24 15 17 30 31
33 31 3 0 13 -15 21 -33z m650 13 c0 -5 -5 -10 -11 -10 -5 0 -7 -4 -4 -10 9
-15 76 -12 108 5 l28 14 -3 -32 c-2 -27 -7 -32 -28 -32 -75 -1 -91 -38 -38
-87 l33 -31 -45 8 c-24 4 -60 18 -80 32 -20 13 -50 23 -66 23 -333 -3 -580
-13 -591 -22 -9 -7 -13 -7 -13 0 0 6 11 19 25 30 20 16 42 20 127 21 57 1 165
6 240 11 116 8 145 8 183 -5 53 -19 61 -15 70 26 10 44 65 94 65 59z m1627
-124 c-17 -25 -59 -36 -137 -36 l-45 0 53 25 c28 13 52 29 52 36 0 7 11 9 34
5 23 -4 37 -2 42 6 6 9 9 9 12 0 2 -7 -3 -23 -11 -36z m-329 -16 l30 -29 -32
-6 c-51 -9 -156 -12 -156 -5 0 18 83 67 117 69 6 1 25 -12 41 -29z m-1353 -10
c34 -28 -4 -29 -155 -2 l-35 6 40 7 c56 10 131 4 150 -11z m-392 3 c-7 -2 -19
-2 -25 0 -7 3 -2 5 12 5 14 0 19 -2 13 -5z m-428 -13 c3 -5 2 -10 -4 -10 -5 0
-13 5 -16 10 -3 6 -2 10 4 10 5 0 13 -4 16 -10z m335 5 c0 -13 -69 -31 -102
-27 -37 4 -45 11 -31 25 7 8 133 10 133 2z m370 -31 c98 -10 83 -25 -20 -20
-313 17 -354 20 -320 26 37 8 249 4 340 -6z m553 4 c60 11 206 -4 224 -21 8
-9 -254 -9 -336 -1 -47 5 -59 10 -51 19 8 9 22 10 56 3 30 -7 66 -6 107 0z
m694 -2 c13 -12 -10 -21 -57 -21 -53 0 -73 10 -50 26 15 10 96 6 107 -5z"/>
<path d="M2000 5022 c0 -11 8 -27 19 -36 16 -14 31 -16 93 -10 l75 7 6 -29 c3
-16 4 -30 2 -32 -1 -2 -36 -8 -76 -15 -53 -9 -75 -17 -77 -28 -2 -10 6 -19 18
-22 11 -3 20 -12 20 -21 0 -22 62 -31 115 -16 41 11 45 11 78 -14 18 -14 39
-26 45 -26 22 0 12 19 -17 36 -16 10 -34 28 -40 41 -11 24 -26 30 -36 13 -8
-12 -95 -13 -95 -1 0 4 19 12 43 17 34 7 42 13 42 31 0 13 6 28 13 35 19 19
14 37 -10 43 -13 3 -61 6 -108 7 -75 3 -85 5 -82 21 2 10 -3 17 -13 17 -8 0
-15 -8 -15 -18z"/>
<path d="M2855 4546 c-27 -18 -56 -40 -64 -49 -18 -23 -25 -21 -57 8 -15 14
-31 25 -37 25 -5 0 -15 7 -22 17 -7 9 -17 13 -23 9 -21 -13 -13 -36 16 -48 44
-19 62 -39 62 -70 0 -41 30 -36 66 11 16 22 50 54 77 72 26 18 47 38 47 46 0
19 -9 16 -65 -21z"/>
<path d="M3097 4203 c-11 -19 -39 -125 -52 -193 -7 -41 -18 -76 -24 -78 -6 -2
-11 -9 -11 -15 0 -15 68 -87 81 -87 16 0 10 26 -13 55 -20 26 -21 31 -10 99
16 97 29 139 51 165 20 23 18 61 -5 61 -7 0 -15 -3 -17 -7z"/>
<path d="M3091 3237 c-19 -7 -36 -18 -39 -24 -5 -16 34 -17 43 -2 4 6 23 9 44
7 27 -2 36 1 36 12 0 19 -40 23 -84 7z"/>
<path d="M2454 2967 c-12 -6 -43 -24 -70 -38 -27 -15 -74 -47 -104 -71 -30
-25 -70 -49 -88 -54 -42 -11 -46 -28 -7 -32 24 -2 44 8 93 48 35 28 88 64 117
80 82 44 95 54 95 67 0 16 -9 16 -36 0z"/>
<path d="M2126 3741 c-3 -5 1 -14 10 -21 11 -10 18 -10 27 -1 9 9 9 14 -3 21
-19 12 -27 12 -34 1z"/>
<path d="M3480 2817 c0 -11 12 -14 43 -13 59 3 62 20 5 24 -36 2 -48 0 -48
-11z"/>
<path d="M3905 1739 c-4 -6 -4 -13 -1 -16 8 -8 36 5 36 17 0 13 -27 13 -35 -1z"/>
<path d="M3980 1681 c0 -15 29 -33 41 -25 9 5 7 11 -6 21 -22 15 -35 17 -35 4z"/>
<path d="M4030 1521 c0 -12 5 -21 10 -21 6 0 10 6 10 14 0 8 -4 18 -10 21 -5
3 -10 -3 -10 -14z"/>
<path d="M3410 532 c-25 -8 -51 -17 -59 -19 -11 -3 -10 -8 5 -24 15 -17 26
-19 60 -14 25 3 45 2 49 -4 18 -30 116 -55 203 -52 49 2 11 30 -63 46 -92 19
-105 25 -105 49 0 13 -7 27 -16 30 -19 7 -18 7 -74 -12z"/>
<path d="M3758 479 c-25 -14 -22 -35 5 -43 21 -6 20 -8 -22 -45 -25 -23 -39
-41 -33 -45 13 -8 56 2 93 20 15 8 31 9 39 4 11 -7 0 -16 -43 -35 -60 -28 -73
-45 -33 -45 35 0 88 21 120 47 22 18 36 23 55 18 14 -3 46 -11 71 -17 62 -15
96 -14 114 5 15 14 19 13 45 -14 33 -32 43 -35 60 -15 15 17 4 46 -15 39 -10
-3 -16 4 -20 25 -13 66 -65 78 -120 27 -32 -29 -87 -34 -122 -9 -12 8 -27 12
-34 8 -7 -4 -27 -9 -46 -11 -33 -4 -33 -4 -26 32 4 22 2 41 -6 50 -14 17 -57
19 -82 4z"/>
<path d="M3790 1235 c-16 -19 -6 -32 31 -40 44 -10 61 10 30 36 -28 23 -44 24
-61 4z"/>
</g>
</svg>
