<?xml version="1.0" standalone="no"?>
<!DOCTYPE svg PUBLIC "-//W3C//DTD SVG 20010904//EN"
 "http://www.w3.org/TR/2001/REC-SVG-20010904/DTD/svg10.dtd">
<svg version="1.0" xmlns="http://www.w3.org/2000/svg"
 width="1024.000000pt" height="1024.000000pt" viewBox="0 0 1024.000000 1024.000000"
 preserveAspectRatio="xMidYMid meet">
<metadata>
Created by potrace 1.14, written by Peter Selinger 2001-2017
</metadata>
<g transform="translate(0.000000,1024.000000) scale(0.100000,-0.100000)"
fill="#000000" stroke="none">
<path d="M4805 10049 c-737 -58 -1461 -280 -2100 -644 -1133 -644 -1965 -1733
-2283 -2990 -215 -848 -201 -1758 39 -2605 111 -389 300 -831 500 -1171 73
-125 213 -333 312 -464 253 -336 639 -720 982 -977 668 -500 1487 -832 2305
-933 181 -23 719 -32 929 -16 649 50 1250 215 1824 502 873 437 1556 1079
2022 1899 539 950 757 1982 646 3060 -110 1058 -554 2028 -1292 2819 -247 265
-528 503 -849 715 -805 535 -1659 796 -2645 811 -148 2 -324 -1 -390 -6z
m-895 -357 c0 -5 -7 -9 -15 -9 -8 0 -12 4 -9 9 3 4 9 8 15 8 5 0 9 -4 9 -8z
m2695 -192 c10 -16 -16 -43 -28 -31 -11 11 -2 41 12 41 5 0 13 -5 16 -10z
m-1105 -41 c69 -5 131 -12 138 -14 8 -3 -6 -27 -40 -67 -30 -35 -73 -93 -98
-131 l-44 -67 -81 7 c-123 12 -458 8 -575 -6 -145 -17 -319 -55 -471 -102
l-129 -39 -72 38 c-40 22 -133 69 -206 107 -74 37 -130 71 -125 75 16 17 303
92 493 130 412 82 791 104 1210 69z m1553 -27 c28 -24 23 -86 -9 -111 -15 -12
-34 -21 -44 -21 -10 0 -29 9 -44 21 -20 16 -26 29 -26 58 0 70 69 100 123 53z
m-1215 -29 c15 -16 19 -21 7 -12 -11 9 -29 21 -40 27 -11 6 -14 12 -8 12 7 0
25 -12 41 -27z m282 -37 c80 -19 158 -39 174 -46 28 -10 28 -11 10 -26 -19
-15 -18 -15 1 -9 47 17 66 14 190 -29 922 -316 1739 -996 2245 -1866 320 -552
510 -1152 566 -1797 20 -225 14 -705 -10 -898 -76 -605 -265 -1147 -579 -1660
-43 -71 -100 -159 -126 -195 -44 -62 -46 -64 -49 -37 -2 16 15 75 41 140 25
62 52 135 60 162 29 97 60 258 61 319 1 88 -22 554 -34 693 -14 160 -57 457
-75 524 -16 58 -26 100 -50 219 -19 95 -101 265 -227 470 -52 85 -116 199
-142 253 l-48 98 11 119 c69 731 -151 1532 -592 2150 -333 467 -816 850 -1317
1044 -167 65 -152 52 -183 155 -15 50 -47 129 -71 176 -40 77 -42 84 -22 80
11 -2 86 -20 166 -39z m-430 31 c0 -2 -12 -14 -27 -28 l-28 -24 24 28 c23 25
31 32 31 24z m200 -57 c6 -11 8 -20 6 -20 -3 0 -10 9 -16 20 -6 11 -8 20 -6
20 3 0 10 -9 16 -20z m-286 -45 c-14 -19 -29 -35 -31 -35 -5 0 7 18 36 53 26
31 23 18 -5 -18z m-2725 -79 c15 -18 3 -46 -20 -46 -25 0 -35 26 -19 45 15 19
24 19 39 1z m2642 -43 c-5 -10 -17 -27 -26 -38 -16 -19 -17 -19 -3 5 26 46 29
50 34 50 3 0 0 -8 -5 -17z m-114 -20 l32 -8 -102 -172 -102 -173 -65 8 c-93
10 -298 6 -415 -8 -99 -12 -101 -12 -136 11 -19 13 -112 65 -207 114 -94 50
-172 92 -172 95 0 3 69 24 153 47 157 44 325 76 482 92 99 11 481 6 532 -6z
m-1817 -201 c22 -42 50 -92 63 -111 l24 -34 -116 -77 c-325 -214 -657 -543
-868 -860 -213 -318 -375 -686 -463 -1046 l-31 -130 -47 -14 c-26 -7 -85 -23
-132 -36 -47 -12 -100 -28 -119 -36 -26 -10 -35 -10 -38 -1 -9 26 -45 63 -62
63 -21 0 -46 -26 -55 -56 -13 -42 -65 -103 -138 -160 -192 -152 -242 -247
-243 -455 0 -114 0 -115 -23 -111 -12 2 -29 -2 -38 -9 -44 -37 43 -335 123
-421 19 -19 29 -47 39 -109 8 -46 21 -96 29 -111 8 -17 9 -28 3 -28 -6 0 -96
16 -201 37 -176 33 -193 35 -230 22 -116 -41 -112 -124 39 -720 29 -119 54
-223 54 -232 0 -17 -81 -139 -88 -133 -9 10 -54 221 -77 361 -35 218 -45 322
-51 580 -20 730 137 1427 467 2075 198 389 420 697 739 1024 366 375 760 652
1238 872 l116 54 23 -61 c12 -33 40 -94 63 -137z m2170 174 c0 -2 -8 -10 -17
-17 -16 -13 -17 -12 -4 4 13 16 21 21 21 13z m217 -28 c-3 -8 -6 -5 -6 6 -1
11 2 17 5 13 3 -3 4 -12 1 -19z m10 -40 c-3 -8 -6 -5 -6 6 -1 11 2 17 5 13 3
-3 4 -12 1 -19z m202 -78 c955 -372 1669 -1254 1875 -2315 43 -223 51 -314 50
-615 0 -163 -5 -305 -10 -318 -9 -21 -15 -15 -99 79 -50 56 -131 154 -182 217
-79 100 -90 118 -82 139 5 12 6 23 3 23 -2 0 -8 -9 -12 -21 -7 -18 -25 -2
-140 129 -73 82 -163 178 -201 211 -41 37 -83 85 -102 119 -76 135 -179 242
-302 314 -39 23 -107 75 -150 115 -82 78 -263 204 -320 222 l-35 12 -11 97
c-7 53 -15 142 -20 198 -6 82 -12 110 -35 150 -18 32 -31 73 -36 119 -4 39
-13 88 -19 110 -6 22 -11 57 -11 77 0 20 -4 40 -10 43 -5 3 -10 25 -10 48 0
23 -5 62 -11 87 -11 48 -105 253 -138 299 -14 20 -23 57 -31 132 -6 57 -24
162 -40 233 -32 139 -32 136 -27 136 2 0 50 -18 106 -40z m-789 -10 c-6 -11
-13 -20 -16 -20 -2 0 0 9 6 20 6 11 13 20 16 20 2 0 0 -9 -6 -20z m597 -27
c-3 -10 -5 -2 -5 17 0 19 2 27 5 18 2 -10 2 -26 0 -35z m1827 -29 c7 -19 -10
-44 -31 -44 -17 0 -27 24 -19 45 7 20 42 19 50 -1z m-1817 -41 c-3 -10 -5 -4
-5 12 0 17 2 24 5 18 2 -7 2 -21 0 -30z m-667 -3 c-6 -11 -13 -20 -16 -20 -2
0 0 9 6 20 6 11 13 20 16 20 2 0 0 -9 -6 -20z m677 -52 c-3 -8 -6 -5 -6 6 -1
11 2 17 5 13 3 -3 4 -12 1 -19z m-727 -38 c-6 -11 -13 -20 -16 -20 -2 0 0 9 6
20 6 11 13 20 16 20 2 0 0 -9 -6 -20z m-1537 -72 c76 -103 119 -181 111 -203
-5 -12 -4 -16 4 -11 16 9 37 -27 61 -108 29 -93 27 -133 -7 -187 -15 -24 -36
-64 -46 -89 -9 -25 -23 -54 -31 -65 -46 -73 -71 -315 -57 -562 11 -177 20
-226 66 -333 5 -13 -24 -15 -226 -15 -241 0 -309 -8 -503 -55 -91 -23 -135
-39 -135 -50 0 -5 33 0 73 11 133 35 271 58 417 69 136 11 309 7 368 -9 56
-15 30 -28 -82 -39 -229 -24 -456 -87 -637 -177 -90 -44 -136 -75 -113 -75 6
0 67 27 135 59 194 93 424 153 667 175 60 6 63 5 74 -20 13 -28 1 -44 -34 -44
-34 0 -245 -70 -343 -113 -147 -64 -331 -179 -320 -198 3 -4 38 14 78 40 150
101 374 197 549 236 73 16 98 15 98 -5 0 -5 -24 -16 -52 -26 -118 -38 -296
-142 -357 -208 -37 -40 -15 -31 59 24 79 58 210 129 298 161 53 18 65 20 72 9
7 -11 -13 -26 -78 -60 -113 -60 -133 -73 -217 -141 -87 -71 -161 -146 -152
-155 4 -4 35 20 69 52 103 98 220 180 347 244 42 21 45 21 58 5 11 -16 9 -20
-15 -32 -65 -34 -201 -150 -254 -217 -60 -76 -36 -67 44 16 66 67 228 198 247
198 4 0 17 -11 30 -24 l22 -23 -26 -17 c-29 -19 -136 -160 -166 -219 -39 -75
-13 -57 49 35 52 78 144 188 157 188 8 0 110 -65 118 -75 14 -18 -3 -98 -29
-138 -40 -61 -54 -112 -70 -262 -19 -184 -41 -314 -65 -384 -55 -155 -56 -388
-4 -541 23 -67 24 -82 17 -145 -10 -79 -9 -211 1 -221 4 -4 7 -23 7 -43 1 -55
19 -123 41 -154 l20 -27 -30 -43 c-16 -23 -86 -112 -156 -197 -70 -85 -157
-193 -193 -239 -37 -47 -80 -100 -96 -118 l-29 -34 -18 31 c-23 37 -70 67
-118 75 l-36 6 -44 172 c-72 284 -87 324 -146 383 -33 34 -69 58 -105 71 -30
12 -235 57 -454 102 -220 45 -401 83 -402 84 -7 8 -58 256 -74 362 -25 163
-25 209 -1 249 10 17 22 42 26 56 4 14 47 62 96 108 67 63 96 98 118 146 38
78 48 137 29 157 -13 12 -6 29 51 125 36 61 96 151 132 200 82 111 109 162
116 223 4 37 2 51 -12 65 -21 20 -27 20 -169 -18 -80 -21 -121 -26 -217 -26
-107 0 -119 2 -119 18 0 35 80 323 120 431 116 316 270 594 483 876 106 139
359 397 497 507 97 77 339 247 352 248 5 0 32 -33 61 -72z m38 55 c13 -16 12
-17 -3 -4 -10 7 -18 15 -18 17 0 8 8 3 21 -13z m2295 -48 c3 -12 4 -39 1 -61
-3 -34 -4 -33 -5 13 -2 43 -7 57 -29 79 l-28 26 28 -17 c15 -10 30 -27 33 -40z
m-826 11 c0 -2 -8 -10 -17 -17 -16 -13 -17 -12 -4 4 13 16 21 21 21 13z m837
-218 c-3 -8 -6 -5 -6 6 -1 11 2 17 5 13 3 -3 4 -12 1 -19z m0 -40 c-3 -8 -6
-5 -6 6 -1 11 2 17 5 13 3 -3 4 -12 1 -19z m-126 -395 c13 -16 12 -17 -3 -4
-10 7 -18 15 -18 17 0 8 8 3 21 -13z m2724 -23 c0 -22 -39 -19 -43 3 -3 15 1
18 20 15 12 -2 23 -10 23 -18z m-2642 -7 c-7 -2 -19 -2 -25 0 -7 3 -2 5 12 5
14 0 19 -2 13 -5z m-1370 -118 c-3 -9 -8 -14 -10 -11 -3 3 -2 9 2 15 9 16 15
13 8 -4z m-670 -151 c13 -5 15 -21 10 -94 -6 -95 2 -154 18 -129 5 7 9 56 9
108 l0 94 24 -22 c44 -41 58 -148 25 -188 -6 -7 -30 -13 -52 -13 -34 0 -46 7
-87 48 -60 60 -90 153 -57 180 22 18 82 27 110 16z m1075 -30 c47 -21 53 -26
46 -46 -26 -87 -104 -179 -179 -214 -55 -26 -89 -29 -132 -13 -60 22 -129 112
-119 154 12 47 92 121 151 139 19 5 20 1 21 -62 0 -78 28 -172 51 -172 10 0
13 5 8 18 -14 36 -36 157 -33 186 2 22 9 32 28 37 37 10 99 0 158 -27z m-328
13 c0 -2 -15 -16 -32 -33 l-33 -29 29 33 c28 30 36 37 36 29z m-602 -102 c0
-16 -2 -15 -8 5 -4 14 -8 34 -8 45 0 16 2 15 8 -5 4 -14 8 -34 8 -45z m557
-135 c10 -11 16 -20 13 -20 -3 0 -13 9 -23 20 -10 11 -16 20 -13 20 3 0 13 -9
23 -20z m128 -127 c-7 -2 -19 -2 -25 0 -7 3 -2 5 12 5 14 0 19 -2 13 -5z
m-3818 -183 c0 -29 -32 -41 -41 -16 -9 24 4 48 23 44 12 -2 18 -12 18 -28z
m4513 -57 c-49 -2 -127 -2 -175 0 -49 1 -9 3 87 3 96 0 136 -2 88 -3z m-325
-10 c-24 -2 -62 -2 -85 0 -24 2 -5 4 42 4 47 0 66 -2 43 -4z m585 0 c-27 -2
-69 -2 -95 0 -27 2 -5 3 47 3 52 0 74 -1 48 -3z m187 -4 c-22 -4 -62 -7 -90
-7 l-50 1 50 7 c28 4 68 7 90 7 l40 1 -40 -9z m-927 -6 c-16 -2 -40 -2 -55 0
-16 2 -3 4 27 4 30 0 43 -2 28 -4z m-100 -10 c-10 -2 -28 -2 -40 0 -13 2 -5 4
17 4 22 1 32 -1 23 -4z m-71 -9 c-3 -3 -12 -4 -19 -1 -8 3 -5 6 6 6 11 1 17
-2 13 -5z m1798 -54 c10 -11 16 -20 13 -20 -3 0 -13 9 -23 20 -10 11 -16 20
-13 20 3 0 13 -9 23 -20z m-1162 3 c-72 -2 -194 -2 -270 0 -76 1 -16 3 132 3
149 0 211 -2 138 -3z m-435 -10 c-15 -2 -42 -2 -60 0 -18 2 -6 4 27 4 33 0 48
-2 33 -4z m645 0 c-7 -2 -19 -2 -25 0 -7 3 -2 5 12 5 14 0 19 -2 13 -5z m54 1
c-3 -3 -12 -4 -19 -1 -8 3 -5 6 6 6 11 1 17 -2 13 -5z m70 0 c-3 -3 -12 -4
-19 -1 -8 3 -5 6 6 6 11 1 17 -2 13 -5z m-884 -11 c-13 -2 -33 -2 -45 0 -13 2
-3 4 22 4 25 0 35 -2 23 -4z m-85 -10 c-10 -2 -26 -2 -35 0 -10 3 -2 5 17 5
19 0 27 -2 18 -5z m1912 -78 c47 -47 82 -85 80 -85 -3 0 -43 38 -90 85 -47 47
-82 85 -80 85 3 0 43 -38 90 -85z m-2563 13 c-3 -7 -5 -2 -5 12 0 14 2 19 5
13 2 -7 2 -19 0 -25z m816 5 c-40 -2 -106 -2 -145 0 -40 1 -8 3 72 3 80 0 112
-2 73 -3z m174 -10 c-20 -2 -52 -2 -70 0 -17 2 0 4 38 4 39 0 53 -2 32 -4z
m183 -13 c47 -6 49 -7 15 -8 -22 0 -67 4 -100 8 -55 6 -56 7 -15 8 25 0 70 -3
100 -8z m123 -17 c-13 -2 -33 -2 -45 0 -13 2 -3 4 22 4 25 0 35 -2 23 -4z m84
-9 c-3 -3 -12 -4 -19 -1 -8 3 -5 6 6 6 11 1 17 -2 13 -5z m60 -10 c-3 -3 -12
-4 -19 -1 -8 3 -5 6 6 6 11 1 17 -2 13 -5z m-754 -21 c-7 -2 -21 -2 -30 0 -10
3 -4 5 12 5 17 0 24 -2 18 -5z m937 -8 c36 -7 54 -13 40 -13 -14 0 -56 6 -95
13 -38 7 -56 13 -40 13 17 1 59 -5 95 -13z m-872 -2 c-10 -2 -26 -2 -35 0 -10
3 -2 5 17 5 19 0 27 -2 18 -5z m65 -10 c-7 -2 -21 -2 -30 0 -10 3 -4 5 12 5
17 0 24 -2 18 -5z m210 -45 c56 -16 107 -34 112 -40 7 -6 5 -8 -5 -4 -8 2 -51
16 -95 30 -44 14 -109 32 -145 41 -55 12 -58 14 -17 9 27 -3 94 -19 150 -36z
m710 35 c-7 -2 -21 -2 -30 0 -10 3 -4 5 12 5 17 0 24 -2 18 -5z m-1095 -29
c67 -15 120 -29 118 -31 -4 -5 -247 46 -255 53 -9 8 18 4 137 -22z m-215 -11
c-7 -2 -19 -2 -25 0 -7 3 -2 5 12 5 14 0 19 -2 13 -5z m152 -33 c60 -17 115
-36 124 -41 13 -9 12 -9 -4 -4 -11 4 -74 22 -140 40 -66 19 -113 34 -104 34 8
1 64 -13 124 -29z m-198 -5 c74 -23 209 -94 325 -170 90 -60 44 -38 -69 32
-135 83 -208 117 -303 142 -41 11 -65 20 -53 20 12 1 57 -10 100 -24z m546
-26 c116 -40 374 -163 476 -229 44 -28 81 -54 81 -57 0 -5 -4 -2 -77 44 -51
32 -176 97 -328 169 -44 21 -132 55 -195 76 -63 21 -99 35 -80 32 19 -3 74
-19 123 -35z m444 5 c-3 -3 -12 -4 -19 -1 -8 3 -5 6 6 6 11 1 17 -2 13 -5z
m-39 -39 c29 -10 52 -19 50 -21 -7 -6 -118 32 -131 45 -10 11 -8 11 8 3 11 -6
44 -18 73 -27z m-567 0 c19 -8 27 -14 19 -14 -14 0 -72 28 -59 29 4 0 22 -7
40 -15z m366 -21 c-3 -3 -12 -4 -19 -1 -8 3 -5 6 6 6 11 1 17 -2 13 -5z m359
-40 c47 -20 83 -38 81 -40 -3 -4 -167 64 -176 72 -12 11 19 0 95 -32z m-593 7
c135 -58 336 -195 457 -310 53 -51 48 -48 -27 17 -128 110 -254 194 -386 258
-108 51 -137 75 -44 35z m-2473 -1 c-8 -5 -22 -9 -30 -9 -10 0 -8 3 5 9 27 12
43 12 25 0z m2405 -10 c3 -5 1 -10 -4 -10 -6 0 -11 5 -11 10 0 6 2 10 4 10 3
0 8 -4 11 -10z m-2568 -26 c-3 -3 -12 -4 -19 -1 -8 3 -5 6 6 6 11 1 17 -2 13
-5z m-663 -94 l21 -25 -26 23 -26 23 -17 -23 c-14 -20 -14 -18 1 15 10 21 19
33 22 25 2 -7 13 -24 25 -38z m826 46 c0 -2 -8 -10 -17 -17 -16 -13 -17 -12
-4 4 13 16 21 21 21 13z m2376 -48 l29 -33 -32 29 c-31 28 -38 36 -30 36 2 0
16 -15 33 -32z m2240 -50 l29 -33 -32 29 c-31 28 -38 36 -30 36 2 0 16 -15 33
-32z m-4702 -15 c-15 -20 -43 -60 -62 -87 -40 -60 -50 -71 -32 -36 16 31 110
160 117 160 3 0 -7 -17 -23 -37z m-814 23 c0 -2 -8 -10 -17 -17 -16 -13 -17
-12 -4 4 13 16 21 21 21 13z m5615 -96 c27 -27 47 -50 44 -50 -3 0 -27 23 -54
50 -27 28 -47 50 -44 50 3 0 27 -22 54 -50z m-5695 26 c0 -2 -8 -10 -17 -17
-16 -13 -17 -12 -4 4 13 16 21 21 21 13z m5775 -106 c10 -11 16 -20 13 -20 -3
0 -13 9 -23 20 -10 11 -16 20 -13 20 3 0 13 -9 23 -20z m-4997 -25 c-6 -14
-13 -23 -15 -21 -5 5 15 46 22 46 3 0 -1 -11 -7 -25z m5063 -52 c13 -16 12
-17 -3 -4 -17 13 -22 21 -14 21 2 0 10 -8 17 -17z m-5121 -53 c-6 -11 -13 -20
-16 -20 -2 0 0 9 6 20 6 11 13 20 16 20 2 0 0 -9 -6 -20z m-30 -50 c-6 -11
-13 -20 -16 -20 -2 0 0 9 6 20 6 11 13 20 16 20 2 0 0 -9 -6 -20z m30 -34 c0
-2 3 -13 6 -23 4 -11 3 -14 -3 -7 -4 6 -21 16 -38 22 l-30 10 33 1 c17 1 32
-1 32 -3z m7208 -163 c3 -19 -1 -23 -22 -23 -21 0 -26 5 -26 26 0 21 4 25 23
22 14 -2 23 -11 25 -25z m-7443 -568 c14 -82 33 -186 44 -230 11 -44 18 -81
17 -83 -2 -2 -430 84 -513 103 -18 4 -91 103 -81 109 2 1 32 10 68 20 81 21
161 73 196 126 19 28 48 51 93 75 36 20 84 51 106 69 l40 34 3 -36 c1 -21 14
-104 27 -187z m1882 193 c-3 -8 -6 -5 -6 6 -1 11 2 17 5 13 3 -3 4 -12 1 -19z
m-3381 -43 c34 -23 48 -68 34 -109 -23 -70 -108 -90 -161 -37 -38 39 -39 87
-3 130 21 26 33 31 68 31 23 0 51 -7 62 -15z m871 -27 c-3 -8 -6 -5 -6 6 -1
11 2 17 5 13 3 -3 4 -12 1 -19z m336 4 c-18 -18 -33 -19 -33 -2 0 7 17 15 43
19 4 0 -1 -7 -10 -17z m-338 -110 c-10 -56 -18 -28 -9 35 6 43 9 50 12 29 2
-16 1 -45 -3 -64z m306 60 c-5 -9 -19 -26 -32 -37 -17 -15 -15 -10 7 17 32 41
40 48 25 20z m-101 -82 c-8 -5 -19 -10 -25 -10 -5 0 -3 5 5 10 8 5 20 10 25
10 6 0 3 -5 -5 -10z m-97 -27 c-7 -2 -19 -2 -25 0 -7 3 -2 5 12 5 14 0 19 -2
13 -5z m-82 -86 c-10 -9 -11 -8 -5 6 3 10 9 15 12 12 3 -3 0 -11 -7 -18z m26
-34 c-4 -3 1 -12 11 -19 15 -12 15 -13 1 -14 -9 0 -19 6 -22 14 -5 13 0 26 11
26 3 0 2 -3 -1 -7z m-514 -48 c-3 -9 -8 -14 -10 -11 -3 3 -2 9 2 15 9 16 15
13 8 -4z m164 9 c-3 -3 -12 -4 -19 -1 -8 3 -5 6 6 6 11 1 17 -2 13 -5z m183
-33 c80 -16 133 -30 119 -30 -23 -1 -258 44 -284 54 -28 11 35 1 165 -24z
m183 -38 c-7 -2 -19 -2 -25 0 -7 3 -2 5 12 5 14 0 19 -2 13 -5z m44 -9 c-3 -3
-12 -4 -19 -1 -8 3 -5 6 6 6 11 1 17 -2 13 -5z m-551 -148 c8 -43 13 -80 11
-82 -5 -5 -48 195 -46 216 1 19 14 -31 35 -134z m601 138 c-3 -3 -12 -4 -19
-1 -8 3 -5 6 6 6 11 1 17 -2 13 -5z m40 -10 c-3 -3 -12 -4 -19 -1 -8 3 -5 6 6
6 11 1 17 -2 13 -5z m103 -19 c36 -8 76 -17 89 -20 13 -4 21 -8 19 -11 -6 -5
-133 21 -168 35 -36 14 -14 13 60 -4z m293 -62 c-7 -2 -19 -2 -25 0 -7 3 -2 5
12 5 14 0 19 -2 13 -5z m100 -20 c-7 -2 -19 -2 -25 0 -7 3 -2 5 12 5 14 0 19
-2 13 -5z m140 -24 c59 -12 105 -24 103 -26 -4 -5 -218 36 -225 43 -8 7 13 4
122 -17z m5198 -26 c13 -16 12 -17 -3 -4 -10 7 -18 15 -18 17 0 8 8 3 21 -13z
m-5048 -10 c-7 -2 -19 -2 -25 0 -7 3 -2 5 12 5 14 0 19 -2 13 -5z m82 -13 c27
-7 27 -8 5 -8 -14 0 -36 4 -50 8 -20 6 -21 8 -5 8 11 0 34 -4 50 -8z m68 -17
c-7 -2 -19 -2 -25 0 -7 3 -2 5 12 5 14 0 19 -2 13 -5z m4948 -30 c13 -16 12
-17 -3 -4 -17 13 -22 21 -14 21 2 0 10 -8 17 -17z m-4778 0 c-7 -2 -21 -2 -30
0 -10 3 -4 5 12 5 17 0 24 -2 18 -5z m-1715 -68 c0 -16 -2 -15 -8 5 -4 14 -8
34 -8 45 0 16 2 15 8 -5 4 -14 8 -34 8 -45z m1765 58 c-7 -2 -19 -2 -25 0 -7
3 -2 5 12 5 14 0 19 -2 13 -5z m50 -10 c-7 -2 -19 -2 -25 0 -7 3 -2 5 12 5 14
0 19 -2 13 -5z m54 -9 c-3 -3 -12 -4 -19 -1 -8 3 -5 6 6 6 11 1 17 -2 13 -5z
m2543 -14 c-6 -11 -13 -20 -16 -20 -2 0 0 9 6 20 6 11 13 20 16 20 2 0 0 -9
-6 -20z m-2384 -62 l29 -33 -32 29 c-31 28 -38 36 -30 36 2 0 16 -15 33 -32z
m-2019 -10 c-3 -8 -6 -5 -6 6 -1 11 2 17 5 13 3 -3 4 -12 1 -19z m3073 -1 c0
-2 -19 -21 -42 -42 l-43 -40 40 43 c36 39 45 47 45 39z m-3063 -39 c-3 -8 -6
-5 -6 6 -1 11 2 17 5 13 3 -3 4 -12 1 -19z m4334 5 c-12 -22 -91 -100 -91 -90
0 8 90 107 97 107 2 0 -1 -8 -6 -17z m2490 -65 c17 -31 2 -19 -32 25 -30 39
-31 40 -5 17 15 -14 32 -33 37 -42z m-6814 20 c-3 -8 -6 -5 -6 6 -1 11 2 17 5
13 3 -3 4 -12 1 -19z m10 -40 c-3 -8 -6 -5 -6 6 -1 11 2 17 5 13 3 -3 4 -12 1
-19z m42 -168 c-1 -8 -9 17 -20 55 -10 39 -18 77 -18 85 1 8 9 -16 20 -55 10
-38 18 -77 18 -85z m4095 98 c-27 -29 -70 -80 -96 -113 -31 -41 -62 -69 -94
-85 -32 -16 -95 -71 -178 -155 -95 -96 -110 -109 -57 -48 91 103 186 192 226
209 40 18 53 30 100 89 40 52 136 155 144 155 2 0 -18 -24 -45 -52z m-427
-120 c-3 -7 -5 -2 -5 12 0 14 2 19 5 13 2 -7 2 -19 0 -25z m2120 25 c-20 -2
-52 -2 -70 0 -17 2 0 4 38 4 39 0 53 -2 32 -4z m86 -10 c-7 -2 -21 -2 -30 0
-10 3 -4 5 12 5 17 0 24 -2 18 -5z m-5829 -160 c20 -78 36 -148 35 -155 -1
-13 -78 278 -79 296 -1 27 12 -14 44 -141z m4986 103 c0 -2 -8 -10 -17 -17
-16 -13 -17 -12 -4 4 13 16 21 21 21 13z m-40 -30 c0 -2 -8 -10 -17 -17 -16
-13 -17 -12 -4 4 13 16 21 21 21 13z m-110 -49 c0 -2 -10 -12 -22 -23 l-23
-19 19 23 c18 21 26 27 26 19z m-2250 -10 c0 -2 -10 -12 -22 -23 l-23 -19 19
23 c18 21 26 27 26 19z m590 -20 c0 -2 -19 -21 -42 -42 l-43 -40 40 43 c36 39
45 47 45 39z m1610 -30 c0 -2 -10 -12 -22 -23 l-23 -19 19 23 c18 21 26 27 26
19z m-60 -77 c-11 -16 -26 -33 -32 -36 -7 -4 1 9 16 29 34 44 46 50 16 7z
m-1418 -112 c-4 -109 -4 -112 -20 -88 -21 32 -50 61 -80 80 l-23 15 63 52 c35
29 63 53 63 53 0 0 -2 -51 -3 -112z m-1215 80 c-3 -8 -6 -5 -6 6 -1 11 2 17 5
13 3 -3 4 -12 1 -19z m1153 18 c0 -2 -8 -10 -17 -17 -16 -13 -17 -12 -4 4 13
16 21 21 21 13z m-970 -73 c0 -12 -3 -24 -7 -26 -5 -3 -8 12 -8 34 -1 22 2 33
7 26 4 -6 8 -22 8 -34z m-2274 -143 l41 -169 -35 -35 -36 -35 -23 57 c-12 31
-34 92 -49 134 l-25 77 37 75 c21 42 40 73 43 70 4 -3 24 -81 47 -174z m2133
40 c0 -8 -9 14 -20 50 -10 36 -19 72 -18 80 0 8 9 -14 19 -50 11 -36 19 -72
19 -80z m96 130 c3 -6 -1 -7 -9 -4 -18 7 -21 14 -7 14 6 0 13 -4 16 -10z m215
7 c0 -2 -12 -14 -27 -28 l-28 -24 24 28 c23 25 31 32 31 24z m2231 -14 c-5
-10 -17 -27 -26 -38 -16 -19 -17 -19 -3 5 26 46 29 50 34 50 3 0 0 -8 -5 -17z
m-4634 -15 c-3 -8 -6 -5 -6 6 -1 11 2 17 5 13 3 -3 4 -12 1 -19z m1023 -12 c0
-19 -3 -42 -6 -51 -6 -14 -8 -14 -25 1 -22 20 -22 24 -9 58 14 39 40 34 40 -8z
m-1207 -11 c-3 -9 -8 -14 -10 -11 -3 3 -2 9 2 15 9 16 15 13 8 -4z m266 -279
c40 -154 70 -283 69 -288 -3 -9 -148 549 -148 567 0 26 16 -28 79 -279z m902
218 c9 -11 22 -14 46 -9 46 8 75 -9 67 -40 -9 -35 2 -68 32 -104 20 -24 23
-34 15 -50 -16 -30 -61 -61 -87 -61 -29 0 -97 68 -124 125 -26 53 -27 130 -2
144 24 15 38 13 53 -5z m4079 -8 c0 -2 -8 -10 -17 -17 -16 -13 -17 -12 -4 4
13 16 21 21 21 13z m-1906 -77 c15 -12 25 -24 21 -27 -3 -3 -11 2 -18 12 -7
10 -29 21 -47 26 -30 7 -31 8 -9 9 15 1 38 -9 53 -20z m-189 -19 c-3 -5 -12
-10 -18 -10 -7 0 -6 4 3 10 19 12 23 12 15 0z m1489 -40 c-15 -22 -29 -40 -31
-40 -5 0 3 15 29 53 30 43 31 32 2 -13z m-1654 26 c0 -2 -8 -10 -17 -17 -16
-13 -17 -12 -4 4 13 16 21 21 21 13z m294 -22 c9 -3 16 -11 16 -16 0 -6 -7 -7
-16 -4 -8 3 -13 2 -9 -3 7 -12 -43 -48 -78 -56 -34 -9 -46 15 -23 49 19 29 74
44 110 30z m-254 -38 c0 -2 -8 -10 -17 -17 -16 -13 -17 -12 -4 4 13 16 21 21
21 13z m-1650 -23 c0 -28 -36 -80 -59 -86 -30 -8 -35 8 -7 26 12 9 29 29 36
46 14 34 30 41 30 14z m3191 -82 c-20 -49 -38 -87 -40 -85 -6 6 64 174 73 174
2 0 -13 -40 -33 -89z m-1450 45 c5 3 9 0 9 -6 0 -15 -23 -7 -26 8 -1 7 0 8 3
2 2 -5 9 -8 14 -4z m-101 -36 c0 -11 5 -20 11 -20 5 0 7 -5 4 -11 -4 -6 -14
-8 -22 -5 -8 3 -11 2 -8 -3 10 -18 -16 -23 -73 -16 l-57 7 65 34 c77 39 80 40
80 14z m-3046 -26 c26 -9 46 -18 44 -20 -5 -4 -108 26 -108 32 0 7 15 4 64
-12z m219 -18 c-10 -13 -20 -22 -22 -20 -4 4 29 44 36 44 2 0 -4 -11 -14 -24z
m-328 -16 c10 -11 16 -20 13 -20 -3 0 -13 9 -23 20 -10 11 -16 20 -13 20 3 0
13 -9 23 -20z m8389 -26 c32 -31 14 -84 -29 -84 -62 0 -60 98 2 100 6 0 19 -7
27 -16z m-5357 -12 c9 -5 6 -12 -10 -21 -20 -13 -21 -13 -9 1 10 13 10 17 0
21 -7 3 -8 6 -3 6 6 0 15 -3 22 -7z m-2859 -27 c-3 -3 -9 2 -12 12 -6 14 -5
15 5 6 7 -7 10 -15 7 -18z m67 -15 c3 -5 1 -10 -4 -10 -6 0 -11 5 -11 10 0 6
2 10 4 10 3 0 8 -4 11 -10z m130 0 c3 -6 -1 -7 -9 -4 -18 7 -21 14 -7 14 6 0
13 -4 16 -10z m-65 -24 c0 -3 -4 -8 -10 -11 -5 -3 -10 -1 -10 4 0 6 5 11 10
11 6 0 10 -2 10 -4z m47 -63 c-3 -10 -5 -2 -5 17 0 19 2 27 5 18 2 -10 2 -26
0 -35z m-132 -12 c2 -17 0 -29 -5 -26 -5 3 -6 13 -3 22 4 10 2 14 -4 10 -7 -5
-9 0 -6 13 7 27 13 21 18 -19z m-85 8 c0 -6 -4 -7 -10 -4 -5 3 -10 11 -10 16
0 6 5 7 10 4 6 -3 10 -11 10 -16z m257 -21 c-3 -8 -6 -5 -6 6 -1 11 2 17 5 13
3 -3 4 -12 1 -19z m-204 -57 c11 -18 17 -35 14 -38 -4 -3 -11 5 -16 19 -9 25
-55 61 -78 61 -7 0 -13 4 -13 9 0 5 -5 6 -12 2 -6 -4 -8 -3 -4 4 11 18 86 -22
109 -57z m64 37 c-3 -8 -6 -5 -6 6 -1 11 2 17 5 13 3 -3 4 -12 1 -19z m251
-73 c0 -11 -6 3 -14 30 -7 28 -13 55 -13 60 2 17 27 -69 27 -90z m-191 38 c-3
-10 -5 -4 -5 12 0 17 2 24 5 18 2 -7 2 -21 0 -30z m-297 17 c0 -5 -5 -10 -11
-10 -5 0 -7 5 -4 10 3 6 8 10 11 10 2 0 4 -4 4 -10z m390 5 c0 -2 -10 -10 -22
-16 -21 -11 -22 -11 -9 4 13 16 31 23 31 12z m-235 -35 c3 -6 -1 -7 -9 -4 -18
7 -21 14 -7 14 6 0 13 -4 16 -10z m185 7 c0 -2 -12 -14 -27 -28 l-28 -24 24
28 c23 25 31 32 31 24z m70 -24 c0 -5 -12 -14 -28 -20 l-27 -13 24 20 c25 22
31 24 31 13z m-405 -22 c3 -5 1 -12 -5 -16 -5 -3 -10 1 -10 9 0 18 6 21 15 7z
m244 -31 c0 -10 -3 -8 -9 5 -12 27 -12 43 0 25 5 -8 9 -22 9 -30z m-114 8 c-9
-6 -19 -7 -22 -4 -4 3 -1 6 6 6 7 0 9 4 6 10 -4 6 1 7 11 3 15 -6 15 -7 -1
-15z m136 -22 c-9 -18 -18 -32 -19 -31 -7 6 22 74 29 70 3 -3 -1 -20 -10 -39z
m135 2 c-9 -12 -16 -19 -16 -15 0 11 24 47 28 42 2 -2 -3 -14 -12 -27z m91 10
c-3 -8 -6 -5 -6 6 -1 11 2 17 5 13 3 -3 4 -12 1 -19z m-446 -35 c13 -15 12
-15 -9 -4 -12 6 -28 9 -34 5 -7 -4 -8 -3 -4 4 10 17 31 15 47 -5z m103 8 c4
-5 -3 -7 -14 -4 -23 6 -26 13 -6 13 8 0 17 -4 20 -9z m162 0 c-4 -5 -3 -11 1
-14 5 -2 2 -2 -5 0 -9 2 -11 -4 -7 -20 4 -15 3 -18 -3 -9 -13 20 -24 -10 -27
-76 -2 -46 -1 -50 11 -35 13 16 13 14 2 -10 -13 -32 -23 -26 -32 23 -4 26 -3
31 5 20 8 -12 9 -9 5 13 -6 25 10 72 36 105 12 14 22 16 14 3z m223 -88 c6
-13 9 -23 6 -23 -10 0 -45 83 -44 105 0 11 6 2 13 -20 7 -22 18 -50 25 -62z
m-114 67 c3 -5 1 -10 -4 -10 -6 0 -11 5 -11 10 0 6 2 10 4 10 3 0 8 -4 11 -10z
m-385 -25 c16 -19 6 -45 -17 -44 -17 1 -17 2 0 6 23 6 22 17 -5 36 -18 12 -19
16 -7 16 9 1 22 -6 29 -14z m320 11 c0 -2 -8 -10 -17 -17 -16 -13 -17 -12 -4
4 13 16 21 21 21 13z m-145 -26 c3 -6 -1 -7 -9 -4 -18 7 -21 14 -7 14 6 0 13
-4 16 -10z m15 -30 c0 -5 -4 -10 -10 -10 -5 0 -10 5 -10 10 0 6 5 10 10 10 6
0 10 -4 10 -10z m221 -23 c-10 -9 -11 -8 -5 6 3 10 9 15 12 12 3 -3 0 -11 -7
-18z m3449 -22 c-7 -9 -15 -13 -17 -11 -6 6 20 36 26 30 2 -2 -2 -10 -9 -19z
m-1115 -5 c3 -5 2 -10 -4 -10 -5 0 -13 5 -16 10 -3 6 -2 10 4 10 5 0 13 -4 16
-10z m-2525 -49 c12 -24 2 -60 -11 -39 -9 14 -12 58 -4 58 2 0 9 -9 15 -19z
m-146 -20 c12 -14 14 -19 4 -17 -22 3 -39 17 -33 27 8 12 9 12 29 -10z m3223
-7 c-3 -3 -12 -4 -19 -1 -8 3 -5 6 6 6 11 1 17 -2 13 -5z m266 -1 c-7 -2 -21
-2 -30 0 -10 3 -4 5 12 5 17 0 24 -2 18 -5z m57 -3 c18 -12 2 -12 -25 0 -13 6
-15 9 -5 9 8 0 22 -4 30 -9z m-813 -6 c-3 -3 -12 -4 -19 -1 -8 3 -5 6 6 6 11
1 17 -2 13 -5z m-2574 -38 c7 4 8 3 4 -2 -5 -5 -12 -9 -15 -10 -23 -3 -42 -19
-38 -30 3 -8 1 -25 -4 -38 -10 -27 3 -45 35 -47 18 -1 18 -2 2 -6 -11 -3 -29
4 -42 17 -20 19 -21 24 -10 56 6 19 20 40 30 48 12 9 15 15 7 20 -7 4 -12 12
-12 19 0 6 7 1 16 -11 8 -12 21 -19 27 -16z m592 8 c24 -11 25 -13 5 -8 -14 4
-38 13 -55 20 -24 11 -25 13 -5 8 14 -4 39 -13 55 -20z m2535 16 c-8 -5 -22
-10 -30 -10 -13 0 -13 1 0 10 8 5 22 10 30 10 13 0 13 -1 0 -10z m50 -10 c-20
-13 -33 -13 -25 0 3 6 14 10 23 10 15 0 15 -2 2 -10z m-3510 -9 c0 -6 -5 -13
-12 -17 -6 -4 -8 -3 -4 4 3 5 0 13 -6 15 -8 3 -6 6 5 6 9 1 17 -3 17 -8z m385
-11 c-10 -11 -23 -20 -29 -20 -6 0 0 9 14 20 32 25 38 25 15 0z m2502 14 c-3
-3 -12 -4 -19 -1 -8 3 -5 6 6 6 11 1 17 -2 13 -5z m220 0 c-3 -3 -12 -4 -19
-1 -8 3 -5 6 6 6 11 1 17 -2 13 -5z m353 -4 c0 -5 -10 -10 -22 -9 -22 0 -22 1
-3 9 11 5 21 9 23 9 1 1 2 -3 2 -9z m220 6 c0 -3 -4 -8 -10 -11 -5 -3 -10 -1
-10 4 0 6 5 11 10 11 6 0 10 -2 10 -4z m-3588 -23 c-26 -5 -24 -29 1 -27 9 1
14 -2 11 -7 -9 -14 -31 -10 -38 7 -11 28 -7 34 22 33 24 -2 24 -2 4 -6z m943
-19 c24 -11 25 -13 5 -8 -14 4 -38 13 -55 20 -24 11 -25 13 -5 8 14 -4 39 -13
55 -20z m2739 11 c3 -9 0 -15 -8 -15 -7 0 -13 7 -13 15 0 8 4 15 8 15 4 0 9
-7 13 -15z m-739 -5 c-3 -5 -12 -10 -18 -10 -7 0 -6 4 3 10 19 12 23 12 15 0z
m225 0 c-8 -5 -22 -9 -30 -9 -10 0 -8 3 5 9 27 12 43 12 25 0z m327 4 c-3 -3
-12 -4 -19 -1 -8 3 -5 6 6 6 11 1 17 -2 13 -5z m1310 0 c-3 -3 -12 -4 -19 -1
-8 3 -5 6 6 6 11 1 17 -2 13 -5z m-1383 -13 c4 -5 -3 -7 -14 -4 -23 6 -26 13
-6 13 8 0 17 -4 20 -9z m126 -1 c0 -5 -7 -10 -16 -10 -8 0 -12 5 -9 10 3 6 10
10 16 10 5 0 9 -4 9 -10z m-3295 -10 c-3 -5 -11 -10 -16 -10 -6 0 -7 5 -4 10
3 6 11 10 16 10 6 0 7 -4 4 -10z m46 -10 c-13 -11 -28 -20 -33 -20 -6 0 0 9
13 20 13 10 29 19 34 19 6 0 -1 -9 -14 -19z m2499 10 c20 -6 21 -8 5 -8 -11 0
-33 4 -50 8 -27 7 -27 8 -5 8 14 0 36 -4 50 -8z m240 0 c-8 -5 -19 -10 -25
-10 -5 0 -3 5 5 10 8 5 20 10 25 10 6 0 3 -5 -5 -10z m173 3 c-7 -2 -21 -2
-30 0 -10 3 -4 5 12 5 17 0 24 -2 18 -5z m-256 -9 c-3 -3 -12 -4 -19 -1 -8 3
-5 6 6 6 11 1 17 -2 13 -5z m4310 -16 c-3 -8 -6 -5 -6 6 -1 11 2 17 5 13 3 -3
4 -12 1 -19z m-6922 2 c-3 -6 -20 -17 -36 -25 -16 -9 -27 -20 -24 -25 4 -6 4
-10 1 -10 -3 0 -7 4 -11 10 -3 5 11 20 32 34 44 28 46 30 38 16z m2995 4 c0
-8 -19 -13 -24 -6 -3 5 1 9 9 9 8 0 15 -2 15 -3z m1606 -25 c3 -6 -5 -3 -20 6
-14 10 -26 19 -26 22 0 7 39 -17 46 -28z m-3846 -1 c10 -6 7 -7 -10 -2 -14 3
-32 11 -40 16 -10 6 -7 7 10 2 14 -3 32 -11 40 -16z m2503 15 c-7 -2 -19 -2
-25 0 -7 3 -2 5 12 5 14 0 19 -2 13 -5z m270 0 c-7 -2 -19 -2 -25 0 -7 3 -2 5
12 5 14 0 19 -2 13 -5z m-1063 -7 c0 -11 -19 -15 -25 -6 -3 5 1 10 9 10 9 0
16 -2 16 -4z m580 0 c0 -2 -13 -6 -29 -8 -17 -2 -28 -1 -25 4 5 8 54 12 54 4z
m167 -2 c-3 -3 -12 -4 -19 -1 -8 3 -5 6 6 6 11 1 17 -2 13 -5z m-3297 -8 c0
-2 -7 -7 -16 -10 -8 -3 -12 -2 -9 4 6 10 25 14 25 6z m2777 -2 c-3 -3 -12 -4
-19 -1 -8 3 -5 6 6 6 11 1 17 -2 13 -5z m-1799 -40 c56 -20 101 -39 99 -41 -2
-2 -53 14 -113 36 -60 22 -104 40 -99 41 6 0 56 -16 113 -36z m1679 30 c-3 -3
-12 -4 -19 -1 -8 3 -5 6 6 6 11 1 17 -2 13 -5z m-82 -14 c3 -5 1 -10 -4 -10
-6 0 -11 5 -11 10 0 6 2 10 4 10 3 0 8 -4 11 -10z m300 0 c-27 -12 -43 -12
-25 0 8 5 22 9 30 9 10 0 8 -3 -5 -9z m574 -6 c10 -9 -45 -3 -59 6 -11 7 -5 8
20 4 19 -4 37 -8 39 -10z m44 9 c-7 -2 -19 -2 -25 0 -7 3 -2 5 12 5 14 0 19
-2 13 -5z m141 -2 c4 -5 -3 -7 -14 -4 -23 6 -26 13 -6 13 8 0 17 -4 20 -9z
m-924 -11 c-34 -11 -60 -11 -35 0 11 5 29 8 40 8 16 0 15 -2 -5 -8z m440 0
c18 -12 2 -12 -25 0 -13 6 -15 9 -5 9 8 0 22 -4 30 -9z m110 0 c13 -9 13 -10
0 -10 -8 0 -22 5 -30 10 -13 9 -13 10 0 10 8 0 22 -5 30 -10z m4521 -17 c-12
-20 -14 -14 -5 12 4 9 9 14 11 11 3 -2 0 -13 -6 -23z m46 5 c-3 -8 -6 -5 -6 6
-1 11 2 17 5 13 3 -3 4 -12 1 -19z m-840 -10 c-3 -8 -6 -5 -6 6 -1 11 2 17 5
13 3 -3 4 -12 1 -19z m-4060 6 c-3 -3 -12 -4 -19 -1 -8 3 -5 6 6 6 11 1 17 -2
13 -5z m356 -11 c-7 -2 -19 -2 -25 0 -7 3 -2 5 12 5 14 0 19 -2 13 -5z m-283
-13 c-12 -8 -12 -10 -1 -10 8 0 12 -3 8 -6 -9 -9 -28 6 -22 17 4 5 12 9 18 9
7 0 6 -4 -3 -10z m77 4 c-3 -3 -12 -4 -19 -1 -8 3 -5 6 6 6 11 1 17 -2 13 -5z
m440 0 c-3 -3 -12 -4 -19 -1 -8 3 -5 6 6 6 11 1 17 -2 13 -5z m-667 -10 c0 -6
-65 -34 -77 -33 -4 0 10 9 32 19 48 22 45 21 45 14z m281 -16 c-18 -5 -45 -7
-60 -5 -19 3 -16 4 12 6 21 0 36 5 33 10 -3 4 7 6 22 3 l27 -6 -34 -8z m4569
17 c0 -2 -10 -9 -22 -15 -22 -11 -22 -10 -4 4 21 17 26 19 26 11z m24 -19 c-3
-9 -10 -16 -15 -16 -6 0 -5 9 1 21 13 24 24 20 14 -5z m-6579 -1 c40 -18 16
-19 -26 0 -19 8 -27 14 -19 14 8 0 29 -6 45 -14z m-958 -1 c-3 -3 -12 -4 -19
-1 -8 3 -5 6 6 6 11 1 17 -2 13 -5z m2740 -10 c-3 -3 -12 -4 -19 -1 -8 3 -5 6
6 6 11 1 17 -2 13 -5z m4033 -39 c-16 -47 -23 -40 -8 8 6 20 13 35 16 33 2 -3
-1 -21 -8 -41z m-5705 9 c24 -11 25 -13 5 -8 -14 4 -38 13 -55 20 -24 11 -25
13 -5 8 14 -4 39 -13 55 -20z m1580 16 c3 -6 -1 -7 -9 -4 -18 7 -21 14 -7 14
6 0 13 -4 16 -10z m52 4 c-3 -3 -12 -4 -19 -1 -8 3 -5 6 6 6 11 1 17 -2 13 -5z
m330 0 c-3 -3 -12 -4 -19 -1 -8 3 -5 6 6 6 11 1 17 -2 13 -5z m-2480 -10 c-3
-3 -12 -4 -19 -1 -8 3 -5 6 6 6 11 1 17 -2 13 -5z m2790 0 c-3 -3 -12 -4 -19
-1 -8 3 -5 6 6 6 11 1 17 -2 13 -5z m1008 -4 c-11 -5 -27 -9 -35 -9 -9 0 -8 4
5 9 11 5 27 9 35 9 9 0 8 -4 -5 -9z m-4198 -6 c-3 -3 -12 -4 -19 -1 -8 3 -5 6
6 6 11 1 17 -2 13 -5z m3150 0 c-3 -3 -12 -4 -19 -1 -8 3 -5 6 6 6 11 1 17 -2
13 -5z m-440 -10 c-3 -3 -12 -4 -19 -1 -8 3 -5 6 6 6 11 1 17 -2 13 -5z m1403
-4 c-14 -4 -34 -8 -45 -8 -16 0 -15 2 5 8 14 4 34 8 45 8 16 0 15 -2 -5 -8z
m-4277 -43 c-14 -19 -21 -21 -30 -12 -9 10 -6 16 13 25 13 8 24 18 25 24 0 6
3 6 6 -1 2 -7 -4 -23 -14 -36z m2732 33 c3 -6 -1 -7 -9 -4 -18 7 -21 14 -7 14
6 0 13 -4 16 -10z m-2955 -4 c0 -2 -8 -10 -17 -17 -16 -13 -17 -12 -4 4 13 16
21 21 21 13z m3407 -2 c-3 -3 -12 -4 -19 -1 -8 3 -5 6 6 6 11 1 17 -2 13 -5z
m1016 -1 c-7 -2 -19 -2 -25 0 -7 3 -2 5 12 5 14 0 19 -2 13 -5z m3358 -27
c-14 -36 -22 -33 -9 5 6 16 12 28 14 26 3 -2 0 -16 -5 -31z m-6161 -47 c116
-40 209 -73 207 -75 -4 -4 -418 134 -426 142 -10 9 20 0 219 -67z m1097 65
c-3 -3 -12 -4 -19 -1 -8 3 -5 6 6 6 11 1 17 -2 13 -5z m153 -4 c-8 -5 -19 -10
-25 -10 -5 0 -3 5 5 10 8 5 20 10 25 10 6 0 3 -5 -5 -10z m167 4 c-3 -3 -12
-4 -19 -1 -8 3 -5 6 6 6 11 1 17 -2 13 -5z m1340 0 c-3 -3 -12 -4 -19 -1 -8 3
-5 6 6 6 11 1 17 -2 13 -5z m-3646 -21 c13 -16 12 -17 -3 -4 -10 7 -18 15 -18
17 0 8 8 3 21 -13z m3589 7 c-14 -4 -34 -8 -45 -8 -16 0 -15 2 5 8 14 4 34 8
45 8 16 0 15 -2 -5 -8z m2661 -27 c-12 -20 -14 -14 -5 12 4 9 9 14 11 11 3 -2
0 -13 -6 -23z m-3896 7 c3 -6 -1 -7 -9 -4 -18 7 -21 14 -7 14 6 0 13 -4 16
-10z m1164 6 c-2 -2 -17 -6 -34 -10 -22 -5 -26 -4 -15 4 14 9 59 15 49 6z
m-1306 -13 c-7 -2 -19 -2 -25 0 -7 3 -2 5 12 5 14 0 19 -2 13 -5z m-2172 -20
c13 -16 12 -17 -3 -4 -10 7 -18 15 -18 17 0 8 8 3 21 -13z m2110 8 c-12 -8 -9
-11 12 -17 16 -3 26 -9 23 -11 -2 -3 -21 1 -41 8 -29 11 -33 15 -18 20 26 11
40 10 24 0z m1199 -17 c0 -2 -9 -4 -20 -4 -11 0 -20 4 -20 9 0 5 9 7 20 4 11
-3 20 -7 20 -9z m3677 -6 c-3 -8 -6 -5 -6 6 -1 11 2 17 5 13 3 -3 4 -12 1 -19z
m-5137 -4 c0 -2 -7 -4 -15 -4 -8 0 -15 4 -15 10 0 5 7 7 15 4 8 -4 15 -8 15
-10z m1403 -1 c-7 -2 -19 -2 -25 0 -7 3 -2 5 12 5 14 0 19 -2 13 -5z m-4259
-19 c3 -8 2 -12 -4 -9 -6 3 -10 10 -10 16 0 14 7 11 14 -7z m4213 10 c-3 -3
-12 -4 -19 -1 -8 3 -5 6 6 6 11 1 17 -2 13 -5z m2974 -21 c-12 -20 -14 -14 -5
12 4 9 9 14 11 11 3 -2 0 -13 -6 -23z m-7070 -63 l-36 -69 -12 32 c-16 43 -15
59 2 23 l13 -30 22 45 c21 41 39 69 45 69 1 0 -14 -31 -34 -70z m7857 44 c0
-15 -4 -22 -10 -16 -5 5 -6 16 -2 25 9 23 12 21 12 -9z m-51 -6 c-3 -8 -6 -5
-6 6 -1 11 2 17 5 13 3 -3 4 -12 1 -19z m-6942 -26 c-8 -8 -25 10 -25 26 0 13
2 13 14 -4 8 -10 13 -21 11 -22z m1982 32 c-3 -3 -12 -4 -19 -1 -8 3 -5 6 6 6
11 1 17 -2 13 -5z m4880 -16 c-3 -8 -6 -5 -6 6 -1 11 2 17 5 13 3 -3 4 -12 1
-19z m-7437 -27 c-12 -17 -26 -31 -32 -31 -10 0 -4 11 31 53 24 28 25 11 1
-22z m663 -30 c6 -9 2 -8 -11 3 -12 11 -22 29 -21 40 0 19 1 19 10 -3 5 -14
15 -32 22 -40z m1130 23 c60 -20 106 -38 104 -40 -2 -3 -49 10 -103 29 -125
43 -131 45 -119 46 5 1 59 -15 118 -35z m5584 14 c-3 -8 -6 -5 -6 6 -1 11 2
17 5 13 3 -3 4 -12 1 -19z m40 -25 c-3 -10 -5 -4 -5 12 0 17 2 24 5 18 2 -7 2
-21 0 -30z m378 27 c3 -6 -1 -7 -9 -4 -18 7 -21 14 -7 14 6 0 13 -4 16 -10z
m-6515 -15 c19 -7 28 -14 20 -14 -8 0 -28 6 -45 14 -39 17 -21 18 25 0z m3137
9 c-3 -3 -12 -4 -19 -1 -8 3 -5 6 6 6 11 1 17 -2 13 -5z m3052 -79 c-1 -18
-28 49 -28 70 0 11 6 2 14 -20 8 -22 14 -44 14 -50z m-3102 69 c-3 -3 -12 -4
-19 -1 -8 3 -5 6 6 6 11 1 17 -2 13 -5z m2992 -78 c1 -5 -7 -2 -17 7 -10 10
-22 15 -25 12 -4 -3 -5 -2 -2 2 3 4 -7 20 -22 37 -21 23 -16 20 19 -9 25 -22
47 -44 47 -49z m-3032 68 c-3 -3 -12 -4 -19 -1 -8 3 -5 6 6 6 11 1 17 -2 13
-5z m3363 2 c0 -2 -8 -10 -17 -17 -16 -13 -17 -12 -4 4 13 16 21 21 21 13z
m143 -53 c-6 -16 -10 -12 -34 30 -10 18 -9 18 15 2 15 -10 23 -22 19 -32z
m-3596 31 c-3 -3 -12 -4 -19 -1 -8 3 -5 6 6 6 11 1 17 -2 13 -5z m-50 -10 c-3
-3 -12 -4 -19 -1 -8 3 -5 6 6 6 11 1 17 -2 13 -5z m-2757 -14 c18 -12 2 -12
-25 0 -13 6 -15 9 -5 9 8 0 22 -4 30 -9z m531 -5 c19 -8 29 -14 23 -15 -7 0
-27 7 -45 15 -19 8 -29 14 -23 15 7 0 27 -7 45 -15z m2186 9 c-3 -3 -12 -4
-19 -1 -8 3 -5 6 6 6 11 1 17 -2 13 -5z m-40 -10 c-3 -3 -12 -4 -19 -1 -8 3
-5 6 6 6 11 1 17 -2 13 -5z m-4214 -11 c-7 -2 -19 -2 -25 0 -7 3 -2 5 12 5 14
0 19 -2 13 -5z m4170 0 c-7 -2 -19 -2 -25 0 -7 3 -2 5 12 5 14 0 19 -2 13 -5z
m-4216 -9 c-3 -3 -12 -4 -19 -1 -8 3 -5 6 6 6 11 1 17 -2 13 -5z m4166 -1 c-7
-2 -19 -2 -25 0 -7 3 -2 5 12 5 14 0 19 -2 13 -5z m3500 -41 c-6 -25 -20 -30
-20 -7 0 8 4 15 8 15 4 0 5 10 2 23 -3 18 -2 19 6 6 5 -8 7 -25 4 -37z m182
10 l-28 -27 23 33 c12 18 25 31 28 27 3 -3 -7 -18 -23 -33z m-5635 18 c18 -12
2 -12 -25 0 -13 6 -15 9 -5 9 8 0 22 -4 30 -9z m1907 4 c-3 -3 -12 -4 -19 -1
-8 3 -5 6 6 6 11 1 17 -2 13 -5z m3443 -49 c0 -5 -5 -3 -10 5 -5 8 -10 20 -10
25 0 6 5 3 10 -5 5 -8 10 -19 10 -25z m347 20 c0 -8 -4 -12 -9 -9 -4 3 -8 9
-8 15 0 5 4 9 8 9 5 0 9 -7 9 -15z m-7009 -23 c2 -7 -1 -12 -8 -12 -6 0 -9 4
-6 9 4 5 1 12 -4 14 -6 3 -5 4 2 3 6 -1 14 -8 16 -14z m957 -8 c24 -11 25 -13
5 -8 -14 4 -38 13 -55 20 -24 11 -25 13 -5 8 14 -4 39 -13 55 -20z m2082 20
c-3 -3 -12 -4 -19 -1 -8 3 -5 6 6 6 11 1 17 -2 13 -5z m-4032 -14 c-11 -5 -27
-9 -35 -9 -13 -1 -13 0 0 9 8 5 24 9 35 9 l20 0 -20 -9z m3992 4 c-3 -3 -12
-4 -19 -1 -8 3 -5 6 6 6 11 1 17 -2 13 -5z m3652 -57 c-2 -2 -17 12 -33 32
l-30 36 34 -32 c19 -18 32 -34 29 -36z m-3692 47 c-3 -3 -12 -4 -19 -1 -8 3
-5 6 6 6 11 1 17 -2 13 -5z m-3930 -41 c-14 -14 -37 -11 -37 5 0 11 45 28 49
19 2 -5 -4 -16 -12 -24z m657 22 c16 -17 41 -21 31 -5 -4 6 7 10 27 9 31 -1
32 -1 8 -9 -14 -4 -18 -9 -10 -10 9 -1 5 -5 -9 -11 -17 -7 -29 -6 -40 4 -17
13 -37 14 -116 2 -38 -6 -47 -5 -39 4 6 7 33 15 60 17 27 3 51 8 53 10 8 8 20
4 35 -11z m181 5 c3 -5 -2 -10 -12 -11 -13 -1 -11 -3 7 -9 22 -7 20 -8 -15 -9
-22 0 -47 4 -55 10 -12 8 -10 9 10 7 16 -2 24 2 23 10 -3 14 33 16 42 2z
m6879 -22 c-12 -56 -25 -78 -19 -33 2 22 5 46 5 53 0 6 5 12 11 12 7 0 8 -12
3 -32z m-7346 3 c3 -9 0 -11 -8 -6 -6 4 -86 7 -176 7 -96 0 -164 4 -164 9 0 6
69 8 172 7 136 -2 172 -6 176 -17z m102 8 c0 -5 6 -7 13 -3 6 4 9 3 4 -1 -9
-10 -96 -10 -105 0 -4 5 1 5 10 2 10 -3 20 -2 23 3 8 13 55 13 55 -1z m1440 1
c0 -7 -136 -10 -420 -10 -373 0 -420 -2 -420 -16 0 -14 -2 -14 -22 0 -16 11
-46 16 -100 16 -43 0 -78 4 -78 9 0 5 215 10 520 10 354 1 520 -2 520 -9z m85
0 c15 -6 7 -9 -30 -8 -39 0 -45 2 -25 8 32 10 31 10 55 0z m543 3 c-10 -2 -28
-2 -40 0 -13 2 -5 4 17 4 22 1 32 -1 23 -4z m1295 0 c-7 -2 -19 -2 -25 0 -7 3
-2 5 12 5 14 0 19 -2 13 -5z m-50 -10 c-7 -2 -19 -2 -25 0 -7 3 -2 5 12 5 14
0 19 -2 13 -5z m-46 -9 c-3 -3 -12 -4 -19 -1 -8 3 -5 6 6 6 11 1 17 -2 13 -5z
m3677 -10 c6 2 8 1 3 -1 -4 -3 -5 -9 -1 -14 10 -17 -3 -9 -22 14 -10 12 -12
17 -5 10 7 -6 19 -10 25 -9z m-3727 0 c-3 -3 -12 -4 -19 -1 -8 3 -5 6 6 6 11
1 17 -2 13 -5z m3788 -13 c-3 -6 -11 -11 -16 -11 -5 0 -4 6 3 14 14 16 24 13
13 -3z m-3828 3 c-3 -3 -12 -4 -19 -1 -8 3 -5 6 6 6 11 1 17 -2 13 -5z m-2660
-10 c-3 -3 -12 -4 -19 -1 -8 3 -5 6 6 6 11 1 17 -2 13 -5z m6661 -19 c-3 -3
-9 2 -12 12 -6 14 -5 15 5 6 7 -7 10 -15 7 -18z m-6543 5 c3 -6 -1 -7 -9 -4
-18 7 -21 14 -7 14 6 0 13 -4 16 -10z m2452 4 c-3 -3 -12 -4 -19 -1 -8 3 -5 6
6 6 11 1 17 -2 13 -5z m4170 -28 c-12 -18 -23 -32 -25 -31 -6 6 29 65 38 65 5
0 -1 -15 -13 -34z m-4220 18 c-3 -3 -12 -4 -19 -1 -8 3 -5 6 6 6 11 1 17 -2
13 -5z m-2487 -44 c18 -12 2 -12 -25 0 -13 6 -15 9 -5 9 8 0 22 -4 30 -9z
m2307 4 c-3 -3 -12 -4 -19 -1 -8 3 -5 6 6 6 11 1 17 -2 13 -5z m-1962 -21
c-16 -8 -45 -29 -62 -46 -38 -36 -51 -34 -20 3 31 35 68 59 92 59 16 0 14 -3
-10 -16z m6535 7 c0 -5 -5 -10 -11 -10 -5 0 -7 5 -4 10 3 6 8 10 11 10 2 0 4
-4 4 -10z m-4703 -16 c-3 -3 -12 -4 -19 -1 -8 3 -5 6 6 6 11 1 17 -2 13 -5z
m4652 -4 c-9 -5 -31 -32 -49 -60 -18 -27 -34 -50 -36 -50 -7 0 16 42 42 76 13
17 20 34 17 38 -4 3 5 6 18 6 20 -1 21 -2 8 -10z m-4702 -6 c-3 -3 -12 -4 -19
-1 -8 3 -5 6 6 6 11 1 17 -2 13 -5z m4653 -4 c-8 -5 -19 -10 -25 -10 -5 0 -3
5 5 10 8 5 20 10 25 10 6 0 3 -5 -5 -10z m80 7 c0 -2 -10 -12 -22 -23 l-23
-19 19 23 c18 21 26 27 26 19z m-4863 -33 c-3 -3 -12 -4 -19 -1 -8 3 -5 6 6 6
11 1 17 -2 13 -5z m4134 -17 c-10 -9 -11 -8 -5 6 3 10 9 15 12 12 3 -3 0 -11
-7 -18z m519 -54 c-3 -100 -3 -106 13 -97 9 6 9 4 1 -7 -7 -8 -15 -29 -19 -46
-15 -72 -20 -34 -11 93 10 146 19 181 16 57z m-7510 41 c0 -2 -9 0 -20 6 -11
6 -20 13 -20 16 0 2 9 0 20 -6 11 -6 20 -13 20 -16z m764 18 c3 -5 -1 -9 -9
-9 -8 0 -12 4 -9 9 3 4 7 8 9 8 2 0 6 -4 9 -8z m2043 2 c-3 -3 -12 -4 -19 -1
-8 3 -5 6 6 6 11 1 17 -2 13 -5z m4795 -21 c-11 -16 -29 -36 -41 -47 -11 -10
-19 -22 -17 -25 3 -4 -4 -18 -14 -31 l-19 -25 6 25 c4 14 27 49 52 77 51 58
63 67 33 26z m-4835 11 c-3 -3 -12 -4 -19 -1 -8 3 -5 6 6 6 11 1 17 -2 13 -5z
m-50 -10 c-3 -3 -12 -4 -19 -1 -8 3 -5 6 6 6 11 1 17 -2 13 -5z m-1029 -34
c50 -36 55 -36 95 -6 41 30 69 36 112 25 53 -15 50 -27 -4 -15 -56 11 -106 -4
-116 -35 -4 -10 -10 -19 -14 -19 -18 0 -87 33 -106 50 -11 10 -33 20 -50 23
-28 4 -28 4 6 6 26 1 48 -8 77 -29z m805 23 c-7 -2 -19 -2 -25 0 -7 3 -2 5 12
5 14 0 19 -2 13 -5z m180 0 c-7 -2 -21 -2 -30 0 -10 3 -4 5 12 5 17 0 24 -2
18 -5z m4293 -30 c-8 -15 -15 -25 -16 -21 0 12 23 58 27 54 3 -2 -2 -17 -11
-33z m309 27 c3 -6 -1 -7 -9 -4 -18 7 -21 14 -7 14 6 0 13 -4 16 -10z m-4692
-7 c-7 -2 -21 -2 -30 0 -10 3 -4 5 12 5 17 0 24 -2 18 -5z m4571 -9 c3 -8 2
-12 -4 -9 -6 3 -10 10 -10 16 0 14 7 11 14 -7z m-5794 2 c0 -2 -8 -10 -17 -17
-16 -13 -17 -12 -4 4 13 16 21 21 21 13z m6270 -36 c-6 -11 -13 -20 -16 -20
-2 0 0 9 6 20 6 11 13 20 16 20 2 0 0 -9 -6 -20z m-5675 1 c3 -5 1 -12 -4 -15
-5 -3 -11 1 -15 9 -6 16 9 21 19 6z m5625 -21 c-12 -16 -24 -30 -26 -30 -3 0
4 14 16 30 12 17 24 30 26 30 3 0 -4 -13 -16 -30z m-1373 4 c-3 -3 -12 -4 -19
-1 -8 3 -5 6 6 6 11 1 17 -2 13 -5z m1240 -46 c-2 -13 -4 -5 -4 17 -1 22 1 32
4 23 2 -10 2 -28 0 -40z m-5332 32 c-3 -5 -12 -10 -19 -10 -8 0 -19 -7 -26
-15 -7 -8 -16 -12 -21 -9 -15 9 0 23 34 33 18 5 33 10 35 10 2 1 0 -3 -3 -9z
m4032 4 c-3 -3 -12 -4 -19 -1 -8 3 -5 6 6 6 11 1 17 -2 13 -5z m1227 -37 c14
-20 22 -37 18 -37 -5 0 -19 19 -32 43 -27 49 -22 47 14 -6z m-6427 3 c-2 -29
-17 -24 -17 6 0 14 4 23 9 19 6 -3 9 -14 8 -25z m147 14 c3 -8 2 -12 -4 -9 -6
3 -10 10 -10 16 0 14 7 11 14 -7z m219 -11 c7 2 23 7 37 11 21 5 20 3 -5 -9
-42 -20 -55 -18 -54 8 1 18 2 18 6 4 3 -10 10 -17 16 -14z m144 21 c-3 -3 -12
-4 -19 -1 -8 3 -5 6 6 6 11 1 17 -2 13 -5z m5967 -44 c10 -13 9 -13 -6 -1 -10
7 -17 23 -17 35 1 20 2 20 6 1 3 -11 10 -27 17 -35z m186 46 c0 -2 -8 -10 -17
-17 -16 -13 -17 -12 -4 4 13 16 21 21 21 13z m-5955 -76 c19 0 35 -4 35 -9 0
-5 -15 -9 -34 -9 -19 0 -39 -3 -45 -7 -6 -3 -12 0 -13 7 0 7 -2 18 -2 24 -1 6
-9 19 -19 28 -9 10 -17 20 -17 24 0 4 14 -8 30 -25 23 -25 38 -33 65 -33z
m350 50 c3 -6 -1 -7 -9 -4 -18 7 -21 14 -7 14 6 0 13 -4 16 -10z m30 -10 c3
-5 1 -10 -4 -10 -6 0 -11 5 -11 10 0 6 2 10 4 10 3 0 8 -4 11 -10z m270 -20
c3 -6 -1 -7 -9 -4 -18 7 -21 14 -7 14 6 0 13 -4 16 -10z m4940 -18 c-3 -3 -11
0 -18 7 -9 10 -8 11 6 5 10 -3 15 -9 12 -12z m-4885 -7 c11 -13 10 -14 -4 -9
-9 3 -16 10 -16 15 0 13 6 11 20 -6z m5095 -103 c-10 -10 -21 40 -16 76 5 36
5 36 13 -17 5 -30 6 -56 3 -59z m-34 76 c11 -21 11 -22 -4 -9 -10 7 -17 17
-17 22 0 15 9 10 21 -13z m-6284 -14 c-3 -3 -12 -4 -19 -1 -8 3 -5 6 6 6 11 1
17 -2 13 -5z m-43 -16 c-3 -4 -11 -8 -18 -8 -6 0 -27 -16 -46 -35 l-34 -35 45
-1 c24 0 79 -1 121 -1 43 0 76 -4 73 -8 -2 -4 -55 -8 -116 -8 -68 -1 -116 -6
-125 -13 -11 -9 -14 -9 -14 1 0 9 -57 11 -232 9 -270 -2 -314 -1 -305 7 9 9
167 25 179 18 6 -4 89 -6 186 -5 l176 2 43 43 c23 23 49 43 57 43 8 0 13 -4
10 -9z m192 -18 c24 -17 44 -36 44 -43 0 -7 -4 -6 -10 3 -5 8 -10 11 -10 7 0
-5 -17 5 -37 21 -21 16 -45 32 -53 35 -12 4 -11 6 3 6 10 1 38 -13 63 -29z
m5354 17 c0 -2 -12 -14 -27 -28 l-28 -24 24 28 c23 25 31 32 31 24z m780 -78
c0 -5 -4 -9 -10 -9 -5 0 -9 3 -8 8 1 4 -3 18 -10 32 l-13 25 20 -24 c12 -13
21 -27 21 -32z m-5903 35 c-3 -3 -12 -4 -19 -1 -8 3 -5 6 6 6 11 1 17 -2 13
-5z m-1084 -11 c-7 -2 -21 -2 -30 0 -10 3 -4 5 12 5 17 0 24 -2 18 -5z m2041
-28 c-5 -13 -47 -15 -288 -15 -154 0 -292 4 -306 8 -14 4 115 9 285 12 171 3
311 6 312 8 1 1 0 -5 -3 -13z m4916 5 c0 -9 -329 -3 -339 6 -2 2 73 4 167 4
104 0 172 -4 172 -10z m-7115 -10 c-7 -12 -52 -14 -58 -2 -3 4 11 8 30 10 21
1 32 -2 28 -8z m1102 4 c-3 -3 -12 -4 -19 -1 -8 3 -5 6 6 6 11 1 17 -2 13 -5z
m308 -4 c12 -5 -36 -8 -125 -8 -102 1 -129 3 -90 8 81 10 192 10 215 0z m835
-5 c0 -15 -26 -32 -36 -23 -2 3 -2 13 2 22 8 20 34 21 34 1z m90 5 c11 -7 1
-10 -35 -9 -37 0 -45 3 -30 9 27 12 47 12 65 0z m1275 2 c-4 -4 -68 -7 -143
-7 -76 0 -324 -2 -552 -3 -228 -1 -419 -2 -425 -2 -5 0 -4 4 4 9 16 10 1127
13 1116 3z m-1142 -9 c-7 -2 -19 -2 -25 0 -7 3 -2 5 12 5 14 0 19 -2 13 -5z
m-1389 -12 c4 -5 -3 -7 -14 -4 -23 6 -26 13 -6 13 8 0 17 -4 20 -9z m2649 2
c-7 -2 -19 -2 -25 0 -7 3 -2 5 12 5 14 0 19 -2 13 -5z m-2136 -9 c-3 -3 -12
-4 -19 -1 -8 3 -5 6 6 6 11 1 17 -2 13 -5z m-88 -30 c26 -33 26 -47 4 -65 -16
-13 -17 -12 -4 3 18 24 9 44 -31 68 -28 17 -30 20 -11 20 12 0 31 -12 42 -26z
m5569 -11 c-10 -2 -28 -2 -40 0 -13 2 -5 4 17 4 22 1 32 -1 23 -4z m-140 -10
c-10 -2 -26 -2 -35 0 -10 3 -2 5 17 5 19 0 27 -2 18 -5z m-128 -47 c-41 -24
-91 -59 -110 -78 -28 -26 -31 -28 -19 -8 16 25 172 130 193 130 6 0 -23 -20
-64 -44z m-2863 28 c-3 -3 -12 -4 -19 -1 -8 3 -5 6 6 6 11 1 17 -2 13 -5z
m2250 0 c-3 -3 -12 -4 -19 -1 -8 3 -5 6 6 6 11 1 17 -2 13 -5z m-4887 -39 c13
-14 19 -25 14 -25 -8 1 -50 50 -41 50 2 0 14 -11 27 -25z m4894 -1 c5 -14 4
-15 -9 -4 -17 14 -19 20 -6 20 5 0 12 -7 15 -16z m-6034 -40 c0 -7 19 -15 43
-19 52 -9 86 -26 112 -56 l20 -24 -25 21 c-38 32 -61 42 -118 50 -28 3 -49 11
-46 16 3 5 -2 21 -12 36 l-17 27 21 -19 c12 -11 22 -25 22 -32z m540 36 c0 -5
-5 -10 -11 -10 -5 0 -7 5 -4 10 3 6 8 10 11 10 2 0 4 -4 4 -10z m1087 -12
c-33 -14 -51 -18 -58 -11 -8 8 -7 13 2 18 8 5 10 4 5 -3 -10 -16 6 -15 40 3
16 8 36 15 44 15 8 -1 -7 -10 -33 -22z m3690 -4 c-3 -3 -12 -4 -19 -1 -8 3 -5
6 6 6 11 1 17 -2 13 -5z m598 -4 c3 -5 1 -10 -4 -10 -6 0 -11 5 -11 10 0 6 2
10 4 10 3 0 8 -4 11 -10z m-718 -6 c-3 -3 -12 -4 -19 -1 -8 3 -5 6 6 6 11 1
17 -2 13 -5z m550 0 c-3 -3 -12 -4 -19 -1 -8 3 -5 6 6 6 11 1 17 -2 13 -5z
m-620 -10 c-3 -3 -12 -4 -19 -1 -8 3 -5 6 6 6 11 1 17 -2 13 -5z m553 -4 c-14
-4 -34 -8 -45 -8 -16 0 -15 2 5 8 14 4 34 8 45 8 16 0 15 -2 -5 -8z m400 -5
c20 -24 6 -28 -15 -5 -10 11 -13 20 -8 20 6 0 16 -7 23 -15z m-4143 -17 c-3
-8 -6 -5 -6 6 -1 11 2 17 5 13 3 -3 4 -12 1 -19z m-1340 -3 c0 -8 -4 -12 -9
-9 -5 3 -6 10 -3 15 9 13 12 11 12 -6z m3900 9 c-3 -3 -12 -4 -19 -1 -8 3 -5
6 6 6 11 1 17 -2 13 -5z m1464 -57 c11 -22 18 -41 15 -44 -5 -5 -56 90 -56
104 0 10 16 -12 41 -60z m219 53 c8 -5 11 -10 5 -10 -5 0 -17 5 -25 10 -8 5
-10 10 -5 10 6 0 17 -5 25 -10z m563 3 c-7 -2 -21 -2 -30 0 -10 3 -4 5 12 5
17 0 24 -2 18 -5z m-4268 -13 c-3 -5 -12 -10 -18 -10 -7 0 -6 4 3 10 19 12 23
12 15 0z m4300 -10 c-3 -5 -16 -15 -28 -21 -22 -12 -22 -12 -3 10 19 21 43 30
31 11z m-145 -4 c0 -2 -8 -10 -17 -17 -16 -13 -17 -12 -4 4 13 16 21 21 21 13z
m-5344 -26 c15 -6 24 -13 21 -16 -3 -3 -14 -1 -25 5 -12 6 -32 11 -46 11 -14
0 -26 4 -26 9 0 11 35 6 76 -9z m4944 5 c7 -9 8 -15 2 -15 -5 0 -12 7 -16 15
-3 8 -4 15 -2 15 2 0 9 -7 16 -15z m-23 -21 c-3 -3 -12 -4 -19 -1 -8 3 -5 6 6
6 11 1 17 -2 13 -5z m82 2 c-2 -2 -17 -6 -34 -10 -22 -5 -26 -4 -15 4 14 9 59
15 49 6z m108 -3 c-20 -2 -52 -2 -70 0 -17 2 0 4 38 4 39 0 53 -2 32 -4z
m-5287 -38 c-7 -8 -18 -15 -24 -15 -6 0 -2 7 8 15 25 19 32 19 16 0z m3070
-21 c0 -4 -8 -3 -17 0 -15 5 -15 4 1 -9 19 -15 19 -15 -1 -15 -26 0 -35 12
-27 34 5 12 10 13 25 5 10 -5 19 -12 19 -15z m91 -31 c12 -19 20 -35 18 -37
-2 -2 -26 8 -54 21 -27 13 -40 22 -28 19 25 -4 38 25 19 45 -8 10 -7 10 6 0
10 -7 27 -29 39 -48z m1637 26 c-6 -16 -12 -28 -14 -26 -5 5 13 57 20 57 3 0
0 -14 -6 -31z m-1825 -1 c12 3 19 1 14 -3 -4 -5 -38 -16 -75 -26 -37 -9 -75
-21 -85 -25 -17 -6 -18 -5 -6 14 7 11 18 20 23 19 6 -1 10 4 8 12 -3 12 0 12
12 1 13 -10 16 -10 16 0 0 10 3 10 16 0 12 -11 18 -10 32 4 9 9 18 12 20 7 2
-5 13 -6 25 -3z m2397 9 c0 -2 -10 -12 -22 -23 l-23 -19 19 23 c18 21 26 27
26 19z m-2390 -57 c-20 -13 -50 -13 -50 0 0 6 15 10 33 10 24 0 28 -3 17 -10z
m85 0 c13 -5 14 -9 5 -9 -8 0 -24 4 -35 9 -13 5 -14 9 -5 9 8 0 24 -4 35 -9z
m-149 -11 c4 -8 -1 -9 -16 -4 -14 4 -20 3 -16 -3 6 -10 -15 -22 -40 -22 -23 0
-16 15 14 27 37 15 50 15 58 2z m394 -3 c0 -2 -7 -7 -16 -10 -8 -3 -12 -2 -9
4 6 10 25 14 25 6z m-160 -16 c13 -8 13 -10 -2 -10 -9 0 -20 5 -23 10 -8 13 5
13 25 0z m-1872 -17 c-10 -2 -28 -2 -40 0 -13 2 -5 4 17 4 22 1 32 -1 23 -4z
m2363 -30 c-12 -20 -14 -14 -5 12 4 9 9 14 11 11 3 -2 0 -13 -6 -23z m1567 20
c-10 -2 -26 -2 -35 0 -10 3 -2 5 17 5 19 0 27 -2 18 -5z m85 0 c-7 -2 -19 -2
-25 0 -7 3 -2 5 12 5 14 0 19 -2 13 -5z m120 0 c-13 -2 -33 -2 -45 0 -13 2 -3
4 22 4 25 0 35 -2 23 -4z m-890 -10 c-7 -2 -19 -2 -25 0 -7 3 -2 5 12 5 14 0
19 -2 13 -5z m-1538 -23 c-3 -5 -11 -10 -16 -10 -6 0 -7 5 -4 10 3 6 11 10 16
10 6 0 7 -4 4 -10z m66 -17 c13 -16 12 -17 -3 -4 -10 7 -18 15 -18 17 0 8 8 3
21 -13z m84 -1 c-3 -3 -11 0 -18 7 -9 10 -8 11 6 5 10 -3 15 -9 12 -12z m-125
-16 c0 -2 -8 -10 -17 -17 -16 -13 -17 -12 -4 4 13 16 21 21 21 13z m1747 -2
c-3 -3 -12 -4 -19 -1 -8 3 -5 6 6 6 11 1 17 -2 13 -5z m541 -1 c-16 -2 -40 -2
-55 0 -16 2 -3 4 27 4 30 0 43 -2 28 -4z m-1658 -38 c0 -14 -2 -25 -4 -25 -2
0 -6 11 -8 25 -3 14 -1 25 3 25 5 0 9 -11 9 -25z m-4297 -12 c-7 -2 -21 -2
-30 0 -10 3 -4 5 12 5 17 0 24 -2 18 -5z m3590 -180 c-7 -2 -19 -2 -25 0 -7 3
-2 5 12 5 14 0 19 -2 13 -5z m110 0 c-7 -2 -19 -2 -25 0 -7 3 -2 5 12 5 14 0
19 -2 13 -5z m-10 -90 c-7 -2 -19 -2 -25 0 -7 3 -2 5 12 5 14 0 19 -2 13 -5z
m1362 -13 c3 -5 1 -10 -4 -10 -6 0 -11 5 -11 10 0 6 2 10 4 10 3 0 8 -4 11
-10z m-2154 -47 c13 -16 12 -17 -3 -4 -10 7 -18 15 -18 17 0 8 8 3 21 -13z
m816 -40 c0 -32 -1 -44 -3 -28 -11 79 -6 75 -99 75 -58 0 -85 -4 -85 -12 0 -6
-3 -9 -6 -5 -18 18 16 27 100 27 l93 0 0 -57z m46 44 c3 -8 -1 -14 -9 -14 -8
0 -14 6 -14 14 0 7 4 13 9 13 5 0 11 -6 14 -13z m-2848 -9 c-11 -6 -29 -18
-40 -27 -12 -9 -8 -4 7 12 16 15 34 27 41 27 6 0 3 -6 -8 -12z m2602 -70 c-2
-13 -4 -5 -4 17 -1 22 1 32 4 23 2 -10 2 -28 0 -40z m271 -13 c0 -16 -2 -15
-8 5 -4 14 -8 34 -8 45 0 16 2 15 8 -5 4 -14 8 -34 8 -45z m-1391 -21 c-3 -3
-12 -4 -19 -1 -8 3 -5 6 6 6 11 1 17 -2 13 -5z m1196 -1 c-13 -2 -33 -2 -45 0
-13 2 -3 4 22 4 25 0 35 -2 23 -4z m100 0 c-13 -2 -33 -2 -45 0 -13 2 -3 4 22
4 25 0 35 -2 23 -4z m-2627 -41 c-4 -3 -14 2 -24 12 -16 18 -16 18 6 6 13 -6
21 -14 18 -18z m61 22 c-3 -3 -12 -4 -19 -1 -8 3 -5 6 6 6 11 1 17 -2 13 -5z
m2288 -84 c3 -6 -1 -7 -9 -4 -18 7 -21 14 -7 14 6 0 13 -4 16 -10z m40 -40
c10 -11 16 -20 13 -20 -3 0 -13 9 -23 20 -10 11 -16 20 -13 20 3 0 13 -9 23
-20z m-745 -50 c-6 -11 -13 -20 -16 -20 -2 0 0 9 6 20 6 11 13 20 16 20 2 0 0
-9 -6 -20z m1340 -24 c0 -2 -8 -10 -17 -17 -16 -13 -17 -12 -4 4 13 16 21 21
21 13z m-2165 -39 c28 -2 -119 -3 -325 -3 -206 0 -343 2 -305 5 67 6 526 4
630 -2z m-712 -4 c-7 -2 -21 -2 -30 0 -10 3 -4 5 12 5 17 0 24 -2 18 -5z
m1800 0 c-23 -2 -64 -2 -90 0 -26 2 -7 3 42 3 50 0 71 -1 48 -3z m190 0 c-13
-2 -33 -2 -45 0 -13 2 -3 4 22 4 25 0 35 -2 23 -4z m90 0 c-13 -2 -33 -2 -45
0 -13 2 -3 4 22 4 25 0 35 -2 23 -4z m125 0 c-10 -2 -26 -2 -35 0 -10 3 -2 5
17 5 19 0 27 -2 18 -5z m710 0 c-10 -2 -26 -2 -35 0 -10 3 -2 5 17 5 19 0 27
-2 18 -5z m385 0 c-57 -2 -149 -2 -205 0 -57 1 -11 3 102 3 113 0 159 -2 103
-3z m-550 -10 c-7 -2 -21 -2 -30 0 -10 3 -4 5 12 5 17 0 24 -2 18 -5z m-1342
-30 c-12 -20 -14 -14 -5 12 4 9 9 14 11 11 3 -2 0 -13 -6 -23z m-42 -82 c-19
-28 -37 -51 -41 -51 -5 0 8 25 28 55 21 30 39 53 41 51 3 -2 -10 -27 -28 -55z
m-64 -91 c-3 -5 -11 -10 -16 -10 -6 0 -7 5 -4 10 3 6 11 10 16 10 6 0 7 -4 4
-10z m902 -12 c-3 -8 -6 -5 -6 6 -1 11 2 17 5 13 3 -3 4 -12 1 -19z m-847 -1
c0 -2 -10 -12 -22 -23 l-23 -19 19 23 c18 21 26 27 26 19z m-185 -107 c-3 -5
-14 -10 -23 -9 -14 0 -13 2 3 9 27 11 27 11 20 0z m253 -25 c-3 -3 -9 2 -12
12 -6 14 -5 15 5 6 7 -7 10 -15 7 -18z"/>
<path d="M4475 9410 c-8 -13 5 -13 25 0 13 8 13 10 -2 10 -9 0 -20 -4 -23 -10z"/>
<path d="M6147 9233 c-24 -23 9 -31 39 -8 18 14 18 14 -7 15 -14 0 -29 -3 -32
-7z"/>
<path d="M6571 9094 c-19 -8 -31 -17 -28 -20 7 -8 77 18 77 28 0 11 -10 10
-49 -8z"/>
<path d="M6430 9030 c-8 -5 -12 -12 -8 -15 9 -9 48 4 48 16 0 12 -21 11 -40
-1z"/>
<path d="M6850 8819 c0 -5 5 -7 10 -4 6 3 10 8 10 11 0 2 -4 4 -10 4 -5 0 -10
-5 -10 -11z"/>
<path d="M7440 8450 c0 -5 7 -10 15 -10 8 0 15 5 15 10 0 6 -7 10 -15 10 -8 0
-15 -4 -15 -10z"/>
<path d="M7625 8280 c18 -20 17 -21 -14 -60 -31 -39 -34 -55 -4 -25 17 18 45
13 86 -16 29 -21 33 -19 16 13 -8 14 -8 23 0 31 16 16 13 27 -6 27 -13 0 -14
3 -5 12 7 7 12 19 12 27 0 11 -5 9 -20 -7 -22 -23 -26 -42 -10 -42 6 0 10 -7
10 -15 0 -16 -9 -19 -34 -9 -13 5 -14 9 -5 20 18 21 3 64 -23 64 -20 0 -21 -1
-3 -20z"/>
<path d="M8070 8010 c0 -5 9 -10 20 -10 11 0 20 5 20 10 0 6 -9 10 -20 10 -11
0 -20 -4 -20 -10z"/>
<path d="M8330 7450 c0 -15 -46 -23 -68 -11 -23 12 -44 -5 -23 -19 7 -4 13
-21 13 -39 1 -27 4 -30 22 -25 11 4 37 7 58 7 21 0 38 4 38 8 0 5 -6 9 -14 9
-17 0 -26 42 -14 64 6 10 5 16 -2 16 -5 0 -10 -4 -10 -10z m-7 -49 c3 -14 -2
-21 -17 -25 -33 -9 -36 -8 -36 19 0 20 5 25 24 25 15 0 26 -7 29 -19z"/>
<path d="M8545 7310 c-3 -5 3 -10 14 -10 12 0 21 5 21 10 0 6 -6 10 -14 10 -8
0 -18 -4 -21 -10z"/>
<path d="M8140 7285 c0 -10 7 -15 18 -13 21 4 19 22 -2 26 -10 2 -16 -3 -16
-13z"/>
<path d="M8596 6691 c-4 -5 14 -9 39 -9 24 1 42 5 39 10 -7 11 -71 10 -78 -1z"/>
<path d="M8409 6579 c-21 -18 -21 -20 -4 -13 11 4 35 9 52 12 18 2 30 8 27 13
-10 16 -51 9 -75 -12z"/>
<path d="M8877 6413 c-7 -89 -25 -106 -114 -101 -35 2 -63 1 -63 -2 0 -3 14
-14 30 -23 37 -22 38 -51 3 -74 l-27 -18 44 -7 c57 -10 77 -30 96 -97 30 -102
29 -102 47 -41 20 68 43 90 127 119 68 24 107 49 58 37 -14 -3 -33 -9 -42 -12
-11 -4 -28 6 -51 30 -39 41 -57 91 -43 119 7 14 4 17 -17 17 -24 0 -25 2 -25
60 0 81 -16 76 -23 -7z m53 -128 c8 -28 25 -56 44 -73 l32 -27 -40 -15 c-33
-13 -45 -25 -67 -69 l-27 -53 -7 43 c-8 46 -59 109 -89 109 -19 0 -21 11 -4
28 9 9 9 18 0 36 -11 24 -10 25 33 31 27 5 52 16 66 31 28 30 42 20 59 -41z"/>
<path d="M8235 6440 c-3 -5 1 -10 9 -10 8 0 18 5 21 10 3 6 -1 10 -9 10 -8 0
-18 -4 -21 -10z"/>
<path d="M8494 6299 c-3 -6 -2 -15 2 -19 12 -12 38 5 30 19 -9 14 -23 14 -32
0z"/>
<path d="M9170 5970 c0 -5 7 -10 15 -10 8 0 15 5 15 10 0 6 -7 10 -15 10 -8 0
-15 -4 -15 -10z"/>
<path d="M8518 5941 c-23 -13 -31 -14 -48 -3 -26 16 -33 15 -26 -3 6 -18 -7
-19 -37 -4 -20 11 -20 10 3 -15 24 -27 24 -28 7 -57 -16 -29 -16 -30 1 -28 39
3 44 -1 39 -28 l-5 -28 18 23 c10 12 26 22 35 22 9 0 14 4 11 9 -10 15 12 61
29 61 8 0 15 5 15 10 0 6 -7 10 -15 10 -18 0 -19 12 -3 28 19 19 6 20 -24 3z
m-13 -74 c-14 -34 -35 -50 -35 -27 0 6 -9 10 -20 10 -20 0 -20 1 -5 31 9 17
22 28 29 26 7 -3 19 -1 27 4 20 12 22 -2 4 -44z"/>
<path d="M8980 5386 c0 -9 5 -16 10 -16 6 0 10 4 10 9 0 6 -4 13 -10 16 -5 3
-10 -1 -10 -9z"/>
<path d="M9110 5094 c-11 -12 -11 -18 1 -30 13 -12 18 -12 34 0 16 12 17 16 6
30 -17 20 -25 20 -41 0z m27 -20 c-9 -9 -28 6 -21 18 4 6 10 6 17 -1 6 -6 8
-13 4 -17z"/>
<path d="M8760 4936 c-12 -33 -32 -41 -60 -26 -26 14 -43 3 -17 -11 22 -13 22
-30 -3 -57 l-21 -22 34 0 c33 0 67 -24 67 -48 0 -7 4 -12 9 -12 5 0 12 20 15
45 6 35 11 45 26 45 10 0 22 5 25 10 3 6 0 10 -7 10 -24 0 -37 15 -43 50 -8
45 -12 48 -25 16z m20 -91 c-4 -5 -9 -17 -11 -26 -3 -13 -9 -12 -38 8 l-33 22
33 33 32 33 13 -30 c7 -16 9 -34 4 -40z"/>
<path d="M9175 4690 c-3 -5 1 -10 9 -10 9 0 16 5 16 10 0 6 -4 10 -9 10 -6 0
-13 -4 -16 -10z"/>
<path d="M8714 4154 c-18 -15 -18 -15 6 -10 14 3 31 6 38 6 7 0 10 5 7 10 -9
14 -28 12 -51 -6z"/>
<path d="M8995 4147 c-22 -12 -41 -31 -44 -42 -3 -15 4 -13 33 13 20 18 43 32
51 32 7 0 17 5 20 10 10 17 -18 11 -60 -13z"/>
<path d="M8887 3963 c-4 -3 -7 -16 -7 -28 0 -42 -46 -58 -104 -35 -36 13 -33
4 20 -52 l45 -49 -26 -45 c-15 -25 -24 -48 -21 -52 4 -3 22 2 41 11 20 9 48
17 63 17 32 0 72 -25 72 -46 0 -8 5 -14 11 -14 6 0 8 7 5 16 -3 9 -6 20 -6 25
0 4 -14 16 -31 25 -30 15 -71 14 -115 -3 -11 -4 -9 4 6 30 24 40 18 63 -22 91
-22 16 -22 16 9 16 22 0 38 8 51 24 l19 25 22 -30 c14 -18 31 -29 46 -29 24 0
25 -3 25 -56 0 -47 3 -55 16 -50 9 3 22 6 30 6 8 0 14 5 14 10 0 6 -9 10 -20
10 -16 0 -20 7 -20 36 0 51 -14 72 -43 67 -28 -6 -57 27 -57 64 0 23 -10 30
-23 16z"/>
<path d="M8993 3935 c-3 -9 -3 -18 0 -21 9 -9 27 6 27 22 0 19 -19 18 -27 -1z"/>
<path d="M2954 8565 c3 -8 9 -22 12 -30 4 -9 -3 -16 -20 -21 -14 -3 -26 -10
-26 -15 0 -11 3 -11 35 1 22 8 27 7 37 -15 15 -34 30 -32 17 2 -9 23 -6 30 18
50 l28 24 -31 -15 c-30 -14 -32 -14 -44 9 -14 27 -36 35 -26 10z"/>
<path d="M2268 7994 c-4 -3 -14 -7 -25 -8 -10 -2 -17 -10 -15 -20 2 -9 -2 -16
-8 -16 -5 0 -10 -4 -10 -10 0 -5 10 -10 22 -10 12 0 30 -7 40 -17 17 -15 18
-15 18 3 0 11 6 26 13 33 10 11 10 14 0 18 -7 3 -13 11 -13 19 0 14 -12 19
-22 8z m12 -44 c0 -22 -7 -25 -29 -11 -16 10 -6 31 15 31 8 0 14 -9 14 -20z"/>
<path d="M2028 7791 c3 -21 0 -30 -12 -33 -15 -3 -15 -5 2 -19 18 -16 21 -15
36 2 9 11 11 19 6 19 -6 0 -10 7 -10 15 0 17 35 21 45 5 8 -14 28 -13 23 1 -3
9 -70 38 -89 39 -3 0 -4 -13 -1 -29z"/>
<path d="M2090 7750 c-13 -8 -13 -11 2 -27 21 -21 31 -13 21 15 -6 16 -12 19
-23 12z"/>
<path d="M2450 7700 c0 -5 5 -10 10 -10 6 0 10 5 10 10 0 6 -4 10 -10 10 -5 0
-10 -4 -10 -10z"/>
<path d="M2145 7609 c-4 -6 -5 -12 -3 -14 7 -7 48 7 48 16 0 13 -37 11 -45 -2z"/>
<path d="M1483 7008 c3 -9 -1 -24 -8 -35 -20 -26 -18 -35 6 -28 13 4 27 0 40
-11 23 -20 22 -21 36 34 10 42 10 42 -18 42 -15 0 -35 3 -45 7 -13 5 -16 3
-11 -9z m57 -31 c0 -19 -10 -27 -26 -20 -21 8 -17 33 6 33 11 0 20 -6 20 -13z"/>
<path d="M1868 6983 c6 -2 18 -2 25 0 6 3 1 5 -13 5 -14 0 -19 -2 -12 -5z"/>
<path d="M2888 7788 c-8 -13 -20 -34 -27 -48 -12 -24 -11 -24 4 -5 19 23 48
75 41 75 -2 0 -10 -10 -18 -22z"/>
<path d="M2841 7694 c0 -11 3 -14 6 -6 3 7 2 16 -1 19 -3 4 -6 -2 -5 -13z"/>
<path d="M2831 7647 c-13 -21 -12 -21 5 -5 10 10 16 20 13 22 -3 3 -11 -5 -18
-17z"/>
<path d="M2722 7395 c0 -16 2 -22 5 -12 2 9 2 23 0 30 -3 6 -5 -1 -5 -18z"/>
<path d="M3188 6543 c7 -3 16 -2 19 1 4 3 -2 6 -13 5 -11 0 -14 -3 -6 -6z"/>
<path d="M2969 6413 l-24 -28 28 24 c25 23 32 31 24 31 -2 0 -14 -12 -28 -27z"/>
<path d="M3540 5581 c0 -6 4 -13 10 -16 6 -3 7 1 4 9 -7 18 -14 21 -14 7z"/>
<path d="M2780 5045 c13 -14 26 -25 28 -25 3 0 -5 11 -18 25 -13 14 -26 25
-28 25 -3 0 5 -11 18 -25z"/>
<path d="M3033 4913 c9 -2 23 -2 30 0 6 3 -1 5 -18 5 -16 0 -22 -2 -12 -5z"/>
<path d="M3183 4873 c9 -2 23 -2 30 0 6 3 -1 5 -18 5 -16 0 -22 -2 -12 -5z"/>
</g>
</svg>
